<?xml version="1.0" encoding="UTF-8" standalone="no"?>
<!-- Created with Inkscape (http://www.inkscape.org/) -->

<svg
   width="128"
   height="128"
   viewBox="0 0 128 128"
   version="1.1"
   id="svg1"
   inkscape:version="1.3.2 (091e20e, 2023-11-25)"
   sodipodi:docname="logo.svg"
   inkscape:export-filename="logo.png"
   inkscape:export-xdpi="100"
   inkscape:export-ydpi="100"
   xmlns:inkscape="http://www.inkscape.org/namespaces/inkscape"
   xmlns:sodipodi="http://sodipodi.sourceforge.net/DTD/sodipodi-0.dtd"
   xmlns="http://www.w3.org/2000/svg"
   xmlns:svg="http://www.w3.org/2000/svg">
  <sodipodi:namedview
     id="namedview1"
     pagecolor="#ffffff"
     bordercolor="#000000"
     borderopacity="0.25"
     inkscape:showpageshadow="2"
     inkscape:pageopacity="0.0"
     inkscape:pagecheckerboard="0"
     inkscape:deskcolor="#d1d1d1"
     inkscape:zoom="2.6700352"
     inkscape:cx="69.474739"
     inkscape:cy="55.055454"
     inkscape:window-width="1728"
     inkscape:window-height="1051"
     inkscape:window-x="0"
     inkscape:window-y="34"
     inkscape:window-maximized="0"
     inkscape:current-layer="layer1" />
  <defs
     id="defs1" />
  <g
     inkscape:groupmode="layer"
     id="layer2"
     inkscape:label="colors"
     sodipodi:insensitive="true">
    <rect
       style="fill:#acffb7;fill-opacity:1;stroke:#ff00ff;stroke-width:0;stroke-miterlimit:2;stroke-opacity:0.721264"
       id="rect1"
       width="202.71794"
       height="22.779669"
       x="-53.604092"
       y="-180.80502"
       transform="rotate(-45,244.18561,-26.194155)" />
    <rect
       style="fill:#caffed;fill-opacity:1;stroke:#ff00ff;stroke-width:0;stroke-miterlimit:2;stroke-opacity:0.721264"
       id="rect2"
       width="202.71794"
       height="22.779669"
       x="-53.604092"
       y="-158.02534"
       transform="rotate(-45,244.18561,-26.194155)" />
    <rect
       style="fill:#a3f5ff;fill-opacity:1;stroke:#ff00ff;stroke-width:0;stroke-miterlimit:2;stroke-opacity:0.721264"
       id="rect3"
       width="202.71794"
       height="22.779669"
       x="-53.604092"
       y="-135.24568"
       transform="rotate(-45,244.18561,-26.194155)" />
    <rect
       style="fill:#ffe6d5;stroke:#ff00ff;stroke-width:0;stroke-miterlimit:2;stroke-opacity:0.721264"
       id="rect4"
       width="202.71794"
       height="22.779669"
       x="-53.604092"
       y="-66.90667"
       transform="rotate(-45,244.18561,-26.194155)" />
    <rect
       style="fill:#dedbf5;fill-opacity:1;stroke:#ff00ff;stroke-width:0;stroke-miterlimit:2;stroke-opacity:0.721264"
       id="rect5"
       width="202.71794"
       height="22.779669"
       x="-53.604092"
       y="-89.68634"
       transform="rotate(-45,244.18561,-26.194155)" />
    <rect
       style="fill:#95e5ff;fill-opacity:1;stroke:#ff00ff;stroke-width:0;stroke-miterlimit:2;stroke-opacity:0.721264"
       id="rect6"
       width="202.71794"
       height="22.779669"
       x="-53.604092"
       y="-112.46601"
       transform="rotate(-45,244.18561,-26.194155)" />
    <rect
       style="fill:#fff2bc;fill-opacity:1;stroke:#ff00ff;stroke-width:0;stroke-miterlimit:2;stroke-opacity:0.721264"
       id="rect7"
       width="202.71794"
       height="22.779669"
       x="-53.604092"
       y="-44.127003"
       transform="rotate(-45,244.18561,-26.194155)" />
    <rect
       style="fill:#eeffd5;fill-opacity:1;stroke:#ff00ff;stroke-width:0;stroke-miterlimit:2;stroke-opacity:0.721264"
       id="rect8"
       width="202.71794"
       height="22.779669"
       x="-53.604092"
       y="-21.34733"
       transform="rotate(-45,244.18561,-26.194155)" />
  </g>
  <g
     inkscape:label="Layer 1"
     inkscape:groupmode="layer"
     id="layer1"
     transform="translate(90.042374,164.99321)">
    <text
       xml:space="preserve"
       style="font-size:144px;font-family:Ov;-inkscape-font-specification:Ov;text-align:center;letter-spacing:0.33px;text-anchor:middle;fill:#dedbf5;fill-opacity:1;stroke:#ff00ff;stroke-width:5;stroke-miterlimit:2;stroke-opacity:0.721264;stroke-dasharray:none"
       x="-79.978813"
       y="-292.64151"
       id="text17"><tspan
         sodipodi:role="line"
         id="tspan17"
         x="-79.813812"
         y="-292.64151"
         style="font-style:normal;font-variant:normal;font-weight:bold;font-stretch:normal;font-family:Courier;-inkscape-font-specification:'Courier Bold';fill:#ffffff;stroke:#000000;stroke-opacity:1;stroke-width:5;stroke-dasharray:none">.wly</tspan></text>
    <path
       style="font-weight:bold;font-size:144px;font-family:Courier;-inkscape-font-specification:'Courier Bold';text-align:center;letter-spacing:0.33px;text-anchor:middle;fill:#ffffff;stroke:#000000;stroke-width:2.44563;stroke-miterlimit:2"
       d="m -254.12311,-83.063191 6.19049,14.650815 6.50001,-14.650815 h -0.55027 q -1.85714,0 -2.8545,-0.962965 -0.96296,-0.962964 -0.96296,-2.82011 0,-2.029103 0.96296,-2.888893 0.99736,-0.85979 3.40477,-0.85979 h 8.08202 q 2.40741,0 3.37038,0.894182 0.99735,0.859789 0.99735,2.854501 0,1.857146 -0.96296,2.82011 -0.96297,0.962965 -2.82011,0.962965 h -0.58466 l -14.13494,30.36777 h 1.54762 q 2.33863,0 3.33598,0.894181 1.03175,0.894181 1.03175,2.923285 0,1.994712 -1.03175,2.888893 -0.99735,0.894181 -3.33598,0.894181 h -15.06351 q -2.37302,0 -3.37038,-0.894181 -0.99736,-0.859789 -0.99736,-2.888893 0,-2.029104 0.99736,-2.923285 0.99736,-0.894181 3.37038,-0.894181 h 5.33069 l 3.23281,-6.912709 -10.42065,-23.455061 h -0.55026 q -1.85715,0 -2.85451,-0.962965 -0.96296,-0.962964 -0.96296,-2.82011 0,-2.029103 0.99735,-2.888893 0.99736,-0.85979 3.37038,-0.85979 h 8.73546 q 2.37302,0 3.37038,0.894182 0.99735,0.859789 0.99735,2.854501 0,1.857146 -0.99735,2.82011 -0.96296,0.962965 -2.78572,0.962965 z"
       id="path21" />
    <path
       style="font-weight:bold;font-size:144px;font-family:Courier;-inkscape-font-specification:'Courier Bold';text-align:center;letter-spacing:0.33px;text-anchor:middle;fill:#ffffff;stroke:#000000;stroke-width:2.44563;stroke-miterlimit:2"
       d="m -279.91275,-66.348881 h 7.39419 q 2.37302,0 3.33598,0.85979 0.96297,0.85979 0.96297,2.854502 0,2.029103 -0.99736,2.923284 -0.96296,0.894182 -3.30159,0.894182 h -23.3175 q -2.30424,0 -3.30159,-0.894182 -0.96297,-0.894181 -0.96297,-2.923284 0,-2.029104 0.92858,-2.854502 0.96296,-0.85979 3.33598,-0.85979 h 7.39419 v -29.851896 h -3.78307 q -2.33863,0 -3.37038,-0.894182 -0.99735,-0.928577 -0.99735,-2.923291 0,-2.0291 0.99735,-2.92328 0.99736,-0.89418 3.37038,-0.89418 h 10.28308 q 0.96297,0 1.47884,0.4127 0.55027,0.3783 0.55027,1.06613 z"
       id="path20" />
    <path
       style="font-weight:bold;font-size:144px;font-family:Courier;-inkscape-font-specification:'Courier Bold';text-align:center;letter-spacing:0.33px;text-anchor:middle;fill:#ffffff;stroke:#000000;stroke-width:2.44563;stroke-miterlimit:2"
       d="m -302.3279,-140.71438 2.75132,16.92066 3.6799,-13.10319 q 0.58466,-2.0635 1.47884,-2.71694 0.89418,-0.65344 2.64815,-0.65344 1.75398,0 2.64815,0.61905 0.89419,0.61905 1.51323,2.75133 l 3.81747,13.10319 2.61376,-16.92066 h -0.58465 q -1.85715,0 -2.82012,-0.96297 -0.96296,-0.96296 -0.96296,-2.8201 0,-2.02911 0.96296,-2.8889 0.99736,-0.85979 3.40477,-0.85979 h 8.08203 q 2.37301,0 3.37037,0.89419 0.99735,0.85978 0.99735,2.8545 0,1.85714 -0.99735,2.8201 -0.96297,0.96297 -2.78572,0.96297 h -0.58465 l -4.29896,21.7011 q -0.34391,1.78836 -1.58201,2.57937 -1.23809,0.82539 -3.61111,0.82539 -2.33863,0 -3.57673,-0.82539 -1.23809,-0.79101 -1.78836,-2.57937 l -4.02382,-13.37834 -3.57672,13.37834 q -0.44709,1.71957 -1.78837,2.54497 -1.34126,0.85979 -3.6455,0.85979 -2.37302,0 -3.57673,-0.82539 -1.2037,-0.79101 -1.54762,-2.57937 l -4.36773,-21.7011 h -0.58466 q -1.82275,0 -2.75132,-0.96297 -0.96297,-0.96296 -0.96297,-2.8201 0,-1.99472 0.96297,-2.8545 0.96296,-0.89419 3.33598,-0.89419 h 8.15081 q 2.37301,0 3.33598,0.89419 0.96296,0.85978 0.96296,2.8545 0,1.85714 -0.96296,2.8201 -0.92857,0.96297 -2.75133,0.96297 z"
       id="path19" />
    <path
       style="font-weight:bold;font-size:144px;font-family:Courier;-inkscape-font-specification:'Courier Bold';text-align:center;letter-spacing:0.33px;text-anchor:middle;fill:#ffffff;stroke:#000000;stroke-width:2.44563;stroke-miterlimit:2"
       d="m -320.77254,-128.91807 q 3.23281,0 5.19313,1.78836 1.99472,1.78837 1.99472,4.67726 0,2.85451 -1.99472,4.67726 -1.96032,1.78837 -5.19313,1.78837 -3.16402,0 -5.15873,-1.78837 -1.99472,-1.82275 -1.99472,-4.67726 0,-2.8545 1.99472,-4.64286 1.99471,-1.82276 5.15873,-1.82276 z"
       id="text19" />
    <path
       style="font-weight:bold;font-size:144px;font-family:Courier;-inkscape-font-specification:'Courier Bold';text-align:center;letter-spacing:0.33px;text-anchor:middle;fill:#ffffff;stroke:#000000;stroke-width:2.1;stroke-miterlimit:2;stroke-dasharray:none"
       d="m 10.70983,-107.15495 5.044801,11.939343 5.297039,-11.939343 h -0.448426 q -1.513442,0 -2.326215,-0.78475 -0.784746,-0.78475 -0.784746,-2.29819 0,-1.65357 0.784746,-2.35424 0.812773,-0.70066 2.774641,-0.70066 h 6.586269 q 1.961864,0 2.746611,0.72869 0.812772,0.70067 0.812772,2.32621 0,1.51344 -0.784746,2.29819 -0.784747,0.78475 -2.298185,0.78475 h -0.476452 l -11.518962,24.747528 h 1.261199 q 1.905813,0 2.718586,0.728695 0.840802,0.728692 0.840802,2.382266 0,1.625548 -0.840802,2.35424 -0.812773,0.728695 -2.718586,0.728695 H 5.1044952 q -1.9338429,0 -2.7466152,-0.728695 -0.8127723,-0.700666 -0.8127723,-2.35424 0,-1.653574 0.8127723,-2.382266 0.8127723,-0.728695 2.7466152,-0.728695 H 9.4486255 L 12.083137,-88.040781 3.5910533,-107.15495 H 3.1426266 q -1.5134379,0 -2.3262141,-0.78475 -0.78474664,-0.78475 -0.78474664,-2.29819 0,-1.65357 0.81277634,-2.35424 0.8127722,-0.70066 2.7466111,-0.70066 H 10.70983 q 1.933841,0 2.746613,0.72869 0.812772,0.70067 0.812772,2.32621 0,1.51344 -0.812772,2.29819 -0.784747,0.78475 -2.27016,0.78475 z"
       id="path24" />
    <path
       style="font-weight:bold;font-size:144px;font-family:Courier;-inkscape-font-specification:'Courier Bold';text-align:center;letter-spacing:0.33px;text-anchor:middle;fill:#ffffff;stroke:#000000;stroke-width:2.1;stroke-miterlimit:2;stroke-dasharray:none"
       d="m -11.559488,-93.534007 h 6.0257346 c 1.2892261,0 2.1954214,0.233555 2.7185861,0.700665 0.523164,0.467113 0.784746,1.242518 0.784746,2.326215 0,1.102383 -0.270924,1.896471 -0.812772,2.382265 -0.523164,0.485797 -1.4200174,0.728695 -2.6905601,0.728695 H -24.535831 c -1.251859,0 -2.148712,-0.242898 -2.69056,-0.728695 -0.523165,-0.485794 -0.784747,-1.279882 -0.784747,-2.382265 0,-1.102383 0.252239,-1.877788 0.756717,-2.326215 0.523165,-0.46711 1.429361,-0.700665 2.71859,-0.700665 h 6.02573 v -25.450713 h -3.082931 c -1.270542,0 -2.18608,-0.2429 -2.746615,-0.72869 -0.541849,-0.50448 -0.812773,-1.29857 -0.812773,-2.38227 0,-1.10238 0.270924,-1.89647 0.812773,-2.38227 0.541851,-0.48579 1.457389,-0.72869 2.746615,-0.72869 h 8.379974 c 0.523165,0 0.924879,0.11211 1.205144,0.33632 0.298951,0.20553 0.448426,0.49514 0.448426,0.86883 z"
       id="path23"
       sodipodi:nodetypes="cssscsscscsccscsssscsc" />
    <path
       style="font-weight:bold;font-size:144px;font-family:Courier;-inkscape-font-specification:'Courier Bold';text-align:center;letter-spacing:0.33px;text-anchor:middle;fill:#ffffff;stroke:#000000;stroke-width:2.1;stroke-miterlimit:2;stroke-dasharray:none"
       d="m -57.018244,-107.15495 2.242133,13.789105 2.998854,-10.678155 q 0.476452,-1.6816 1.205148,-2.2141 0.728691,-0.53251 2.158051,-0.53251 1.429361,0 2.158052,0.50448 0.728695,0.50448 1.233173,2.24213 l 3.110961,10.678155 2.130027,-13.789105 h -0.476453 q -1.513441,0 -2.298188,-0.78475 -0.784747,-0.78475 -0.784747,-2.29819 0,-1.65357 0.784747,-2.35424 0.812776,-0.70066 2.774641,-0.70066 h 6.586267 q 1.933839,0 2.746611,0.72869 0.812777,0.70067 0.812777,2.32621 0,1.51344 -0.812777,2.29819 -0.784746,0.78475 -2.270158,0.78475 h -0.476453 l -3.503332,17.684808 q -0.280269,1.457387 -1.289229,2.102001 -1.00896,0.67264 -2.942799,0.67264 -1.905813,0 -2.914773,-0.67264 -1.00896,-0.644614 -1.457386,-2.102001 l -3.279119,-10.902358 -2.914772,10.902358 q -0.36435,1.401335 -1.457387,2.073975 -1.093041,0.700666 -2.970828,0.700666 -1.933839,0 -2.914774,-0.67264 -0.980934,-0.644614 -1.261199,-2.102001 l -3.559387,-17.684808 h -0.476452 q -1.485413,0 -2.242134,-0.78475 -0.784746,-0.78475 -0.784746,-2.29819 0,-1.62554 0.784746,-2.32621 0.784747,-0.72869 2.718586,-0.72869 h 6.642319 q 1.933843,0 2.718589,0.72869 0.784747,0.70067 0.784747,2.32621 0,1.51344 -0.784747,2.29819 -0.756721,0.78475 -2.242133,0.78475 z"
       id="path22" />
    <path
       style="font-weight:bold;font-size:144px;font-family:Courier;-inkscape-font-specification:'Courier Bold';text-align:center;letter-spacing:0.33px;text-anchor:middle;fill:#ffffff;stroke:#000000;stroke-width:2.1;stroke-miterlimit:2;stroke-dasharray:none"
       d="m -75.347316,-97.541821 q 2.634505,0 4.232024,1.457386 1.625548,1.457387 1.625548,3.811627 0,2.326214 -1.625548,3.811626 -1.597519,1.457387 -4.232024,1.457387 -2.578453,0 -4.204002,-1.457387 -1.625544,-1.485412 -1.625544,-3.811626 0,-2.326211 1.625544,-3.783597 1.625549,-1.485416 4.204002,-1.485416 z"
       id="text21" />
  </g>
</svg>
