<?xml version="1.0" encoding="UTF-8" standalone="no"?>
<!-- Created with Inkscape (http://www.inkscape.org/) -->

<svg
   width="128"
   height="128"
   viewBox="0 0 128 128"
   version="1.1"
   id="svg1"
   inkscape:version="1.3.2 (091e20e, 2023-11-25)"
   sodipodi:docname="logo_outline.svg"
   inkscape:export-filename="logo.png"
   inkscape:export-xdpi="192"
   inkscape:export-ydpi="192"
   xmlns:inkscape="http://www.inkscape.org/namespaces/inkscape"
   xmlns:sodipodi="http://sodipodi.sourceforge.net/DTD/sodipodi-0.dtd"
   xmlns="http://www.w3.org/2000/svg"
   xmlns:svg="http://www.w3.org/2000/svg">
  <sodipodi:namedview
     id="namedview1"
     pagecolor="#ffffff"
     bordercolor="#000000"
     borderopacity="0.25"
     inkscape:showpageshadow="2"
     inkscape:pageopacity="0.0"
     inkscape:pagecheckerboard="0"
     inkscape:deskcolor="#d1d1d1"
     inkscape:zoom="5.3400706"
     inkscape:cx="67.789366"
     inkscape:cy="79.025172"
     inkscape:window-width="1728"
     inkscape:window-height="1051"
     inkscape:window-x="0"
     inkscape:window-y="34"
     inkscape:window-maximized="0"
     inkscape:current-layer="layer3"
     showguides="true">
    <sodipodi:guide
       position="28.651307,38.862602"
       orientation="0,-1"
       id="guide1"
       inkscape:locked="false" />
  </sodipodi:namedview>
  <defs
     id="defs1" />
  <g
     inkscape:groupmode="layer"
     id="layer3"
     inkscape:label="Layer 2"
     style="display:inline">
    <path
       style="font-weight:bold;font-size:144px;font-family:Courier;-inkscape-font-specification:'Courier Bold';text-align:center;letter-spacing:0.33px;text-anchor:middle;display:inline;fill:#000000;stroke:#f4e3d7;stroke-width:0.3;stroke-miterlimit:2;stroke-dasharray:none;stroke-opacity:1"
       d="m 99.256407,80.072937 7.041763,16.668075 7.39383,-16.668075 h -0.62594 q -2.11251,0 -3.24701,-1.095569 -1.09537,-1.095559 -1.09537,-3.208413 0,-2.308488 1.09537,-3.286664 1.1345,-0.978165 3.87295,-0.978165 h 9.19341 q 2.73849,0 3.83391,1.017294 1.13449,0.978177 1.13449,3.247535 0,2.112854 -1.09539,3.208413 -1.0954,1.095569 -3.20793,1.095569 h -0.66508 l -16.07866,34.549093 h 1.76044 q 2.66021,0 3.7947,1.01729 1.17362,1.01731 1.17362,3.32577 0,2.26938 -1.17362,3.28671 -1.13449,1.01726 -3.7947,1.01726 H 91.432224 q -2.699351,0 -3.833854,-1.01726 -1.134502,-0.97821 -1.134502,-3.28671 0,-2.30846 1.134502,-3.32577 1.134503,-1.01729 3.833854,-1.01729 h 6.063731 L 101.17332,106.7575 89.319699,80.072937 h -0.62594 q -2.112525,0 -3.247029,-1.095569 -1.095386,-1.095559 -1.095386,-3.208413 0,-2.308488 1.134512,-3.286664 1.134502,-0.978165 3.833843,-0.978165 h 9.936708 q 2.699333,0 3.833843,1.017294 1.13451,0.978177 1.13451,3.247535 0,2.112854 -1.13451,3.208413 -1.09539,1.095569 -3.168792,1.095569 z"
       id="path24" />
    <path
       style="font-weight:bold;font-size:144px;font-family:Courier;-inkscape-font-specification:'Courier Bold';text-align:center;letter-spacing:0.33px;text-anchor:middle;display:inline;fill:#000000;fill-opacity:1;stroke:#f4e3d7;stroke-width:0.3;stroke-miterlimit:2;stroke-dasharray:none;stroke-opacity:1"
       d="m 107.10414,51.990066 h 8.41099 c 1.79957,0 3.06447,0.326057 3.79472,0.978164 0.73024,0.652122 1.09538,1.787043 1.09538,3.299944 0,1.538999 -0.37817,2.699982 -1.1345,3.378187 -0.73028,0.678192 -1.98214,1.017294 -3.7556,1.017294 H 88.991176 c -1.747396,0 -2.999275,-0.339102 -3.755601,-1.017294 -0.730259,-0.678205 -1.095386,-1.839188 -1.095386,-3.378187 0,-1.538997 0.352082,-2.673905 1.05626,-3.299944 0.73026,-0.652107 1.995162,-0.978164 3.794727,-0.978164 h 8.410988 V 16.511682 h -4.303303 c -1.773476,0 -3.05142,-0.339089 -3.83384,-1.017282 -0.756338,-0.704291 -1.134502,-1.812897 -1.134502,-3.325796 0,-1.538998 0.378164,-2.6476021 1.134502,-3.3258079 0.756337,-0.678184 2.034284,-1.0172969 3.83384,-1.0172969 h 11.697159 c 0.73026,0 1.29098,0.1565032 1.68219,0.4695229 0.41729,0.286933 0.62593,0.6912508 0.62593,1.2129411 z"
       id="path23"
       sodipodi:nodetypes="cssscsscscsccscsssscsc" />
    <path
       style="font-weight:bold;font-size:144px;font-family:Courier;-inkscape-font-specification:'Courier Bold';text-align:center;letter-spacing:0.33px;text-anchor:middle;display:inline;fill:#000000;stroke:#f4e3d7;stroke-width:0.3;stroke-miterlimit:2;stroke-dasharray:none;stroke-opacity:1"
       d="m 34.664657,60.820858 3.129662,19.250446 4.185939,-14.907377 q 0.665052,-2.347608 1.682199,-3.091019 1.017139,-0.743417 3.01231,-0.743417 1.995159,0 3.012296,0.704287 1.01715,0.704288 1.721326,3.130149 l 4.342418,14.907377 2.973182,-19.250446 h -0.665054 q -2.112527,0 -3.207914,-1.095572 -1.095388,-1.095555 -1.095388,-3.208408 0,-2.308481 1.095388,-3.286655 1.134515,-0.978163 3.872968,-0.978163 h 9.193405 q 2.699338,0 3.833839,1.017281 1.134517,0.978179 1.134517,3.247537 0,2.112853 -1.134517,3.208408 -1.095377,1.095572 -3.168782,1.095572 h -0.665057 l -4.890103,24.689079 q -0.39121,2.034606 -1.799566,2.934524 -1.408348,0.939047 -4.107687,0.939047 -2.660226,0 -4.068573,-0.939047 -1.408356,-0.899918 -2.034284,-2.934524 L 46.440037,70.28957 42.371477,85.509937 q -0.508588,1.956351 -2.034296,2.895398 -1.525711,0.978173 -4.146813,0.978173 -2.69934,0 -4.068571,-0.939047 -1.369231,-0.899918 -1.760442,-2.934524 L 25.393013,60.820858 h -0.665055 q -2.073412,0 -3.129672,-1.095572 -1.095389,-1.095555 -1.095389,-3.208408 0,-2.269358 1.095389,-3.247537 1.09539,-1.017281 3.794727,-1.017281 h 9.271644 q 2.69934,0 3.794729,1.017281 1.095384,0.978179 1.095384,3.247537 0,2.112853 -1.095384,3.208408 -1.056264,1.095572 -3.129674,1.095572 z"
       id="path22" />
    <path
       style="font-weight:bold;font-size:144px;font-family:Courier;-inkscape-font-specification:'Courier Bold';text-align:center;letter-spacing:0.33px;text-anchor:middle;display:inline;fill:#000000;stroke:#f4e3d7;stroke-width:0.400001;stroke-miterlimit:2;stroke-dasharray:none;stroke-opacity:1"
       d="m 7.8896001,75.386263 q 3.4264849,0 5.5042509,1.89581 2.114219,1.895806 2.114219,4.958238 0,3.02599 -2.114219,4.958248 -2.077766,1.895788 -5.5042509,1.895788 -3.3535726,0 -5.467792,-1.895788 -2.11421052,-1.932258 -2.11421052,-4.958248 0,-3.025982 2.11421052,-4.921789 2.1142181,-1.932259 5.467792,-1.932259 z"
       id="text21" />
  </g>
</svg>
