<?xml version="1.0" encoding="UTF-8" standalone="no"?>
<!-- Created with Inkscape (http://www.inkscape.org/) -->

<svg
   width="128"
   height="128"
   viewBox="0 0 128 128"
   version="1.1"
   id="svg1"
   inkscape:version="1.3.2 (091e20e, 2023-11-25)"
   sodipodi:docname="logo.svg"
   inkscape:export-filename="logo.png"
   inkscape:export-xdpi="192"
   inkscape:export-ydpi="192"
   xmlns:inkscape="http://www.inkscape.org/namespaces/inkscape"
   xmlns:sodipodi="http://sodipodi.sourceforge.net/DTD/sodipodi-0.dtd"
   xmlns="http://www.w3.org/2000/svg"
   xmlns:svg="http://www.w3.org/2000/svg">
  <sodipodi:namedview
     id="namedview1"
     pagecolor="#ffffff"
     bordercolor="#000000"
     borderopacity="0.25"
     inkscape:showpageshadow="2"
     inkscape:pageopacity="0.0"
     inkscape:pagecheckerboard="0"
     inkscape:deskcolor="#d1d1d1"
     inkscape:zoom="2.6700353"
     inkscape:cx="87.0775"
     inkscape:cy="35.205527"
     inkscape:window-width="1728"
     inkscape:window-height="1051"
     inkscape:window-x="0"
     inkscape:window-y="34"
     inkscape:window-maximized="0"
     inkscape:current-layer="layer5"
     showguides="true" />
  <defs
     id="defs1" />
  <g
     inkscape:groupmode="layer"
     id="layer2"
     inkscape:label="colors"
     sodipodi:insensitive="true"
     style="display:none">
    <rect
       style="fill:#acffb7;fill-opacity:1;stroke:#ff00ff;stroke-width:0;stroke-miterlimit:2;stroke-opacity:0.721264"
       id="rect1"
       width="202.71794"
       height="22.779669"
       x="-53.604092"
       y="-180.80502"
       transform="rotate(-45,244.18561,-26.194155)" />
    <rect
       style="fill:#caffed;fill-opacity:1;stroke:#ff00ff;stroke-width:0;stroke-miterlimit:2;stroke-opacity:0.721264"
       id="rect2"
       width="202.71794"
       height="22.779669"
       x="-53.604092"
       y="-158.02534"
       transform="rotate(-45,244.18561,-26.194155)" />
    <rect
       style="fill:#a3f5ff;fill-opacity:1;stroke:#ff00ff;stroke-width:0;stroke-miterlimit:2;stroke-opacity:0.721264"
       id="rect3"
       width="202.71794"
       height="22.779669"
       x="-53.604092"
       y="-135.24568"
       transform="rotate(-45,244.18561,-26.194155)" />
    <rect
       style="fill:#ffe6d5;stroke:#ff00ff;stroke-width:0;stroke-miterlimit:2;stroke-opacity:0.721264"
       id="rect4"
       width="202.71794"
       height="22.779669"
       x="-53.604092"
       y="-66.90667"
       transform="rotate(-45,244.18561,-26.194155)" />
    <rect
       style="fill:#dedbf5;fill-opacity:1;stroke:#ff00ff;stroke-width:0;stroke-miterlimit:2;stroke-opacity:0.721264"
       id="rect5"
       width="202.71794"
       height="22.779669"
       x="-53.604092"
       y="-89.68634"
       transform="rotate(-45,244.18561,-26.194155)" />
    <rect
       style="fill:#95e5ff;fill-opacity:1;stroke:#ff00ff;stroke-width:0;stroke-miterlimit:2;stroke-opacity:0.721264"
       id="rect6"
       width="202.71794"
       height="22.779669"
       x="-53.604092"
       y="-112.46601"
       transform="rotate(-45,244.18561,-26.194155)" />
    <rect
       style="fill:#fff2bc;fill-opacity:1;stroke:#ff00ff;stroke-width:0;stroke-miterlimit:2;stroke-opacity:0.721264"
       id="rect7"
       width="202.71794"
       height="22.779669"
       x="-53.604092"
       y="-44.127003"
       transform="rotate(-45,244.18561,-26.194155)" />
    <rect
       style="fill:#eeffd5;fill-opacity:1;stroke:#ff00ff;stroke-width:0;stroke-miterlimit:2;stroke-opacity:0.721264"
       id="rect8"
       width="202.71794"
       height="22.779669"
       x="-53.604092"
       y="-21.34733"
       transform="rotate(-45,244.18561,-26.194155)" />
  </g>
  <g
     inkscape:groupmode="layer"
     id="layer5"
     inkscape:label="background"
     style="display:inline">
    <rect
       style="display:inline;fill:#eed4c1;fill-opacity:1;stroke:#000000;stroke-width:2.5;stroke-miterlimit:2;stroke-dasharray:none;stroke-opacity:1"
       id="rect32"
       width="128"
       height="128"
       x="0"
       y="0" />
  </g>
  <g
     inkscape:groupmode="layer"
     id="layer6"
     inkscape:label="background v2"
     style="display:none">
    <rect
       style="display:inline;fill:#000000;fill-opacity:1;stroke:#ffffff;stroke-width:4;stroke-miterlimit:2;stroke-dasharray:none;stroke-opacity:1"
       id="rect15"
       width="114.15353"
       height="114.15353"
       x="7.0008025"
       y="7.0008025"
       rx="0"
       ry="0" />
  </g>
  <g
     inkscape:label="Layer 1"
     inkscape:groupmode="layer"
     id="layer1"
     transform="translate(90.042374,164.99321)"
     style="display:none">
    <text
       xml:space="preserve"
       style="font-size:144px;font-family:Ov;-inkscape-font-specification:Ov;text-align:center;letter-spacing:0.33px;text-anchor:middle;fill:#dedbf5;fill-opacity:1;stroke:#ff00ff;stroke-width:5;stroke-miterlimit:2;stroke-dasharray:none;stroke-opacity:0.721264"
       x="-79.978813"
       y="-292.64151"
       id="text17"><tspan
         sodipodi:role="line"
         id="tspan17"
         x="-79.813812"
         y="-292.64151"
         style="font-style:normal;font-variant:normal;font-weight:bold;font-stretch:normal;font-family:Courier;-inkscape-font-specification:'Courier Bold';fill:#ffffff;stroke:#000000;stroke-width:5;stroke-dasharray:none;stroke-opacity:1">.wly</tspan></text>
    <path
       style="font-weight:bold;font-size:144px;font-family:Courier;-inkscape-font-specification:'Courier Bold';text-align:center;letter-spacing:0.33px;text-anchor:middle;fill:#ffffff;stroke:#000000;stroke-width:2.44563;stroke-miterlimit:2"
       d="m -254.12311,-83.063191 6.19049,14.650815 6.50001,-14.650815 h -0.55027 q -1.85714,0 -2.8545,-0.962965 -0.96296,-0.962964 -0.96296,-2.82011 0,-2.029103 0.96296,-2.888893 0.99736,-0.85979 3.40477,-0.85979 h 8.08202 q 2.40741,0 3.37038,0.894182 0.99735,0.859789 0.99735,2.854501 0,1.857146 -0.96296,2.82011 -0.96297,0.962965 -2.82011,0.962965 h -0.58466 l -14.13494,30.36777 h 1.54762 q 2.33863,0 3.33598,0.894181 1.03175,0.894181 1.03175,2.923285 0,1.994712 -1.03175,2.888893 -0.99735,0.894181 -3.33598,0.894181 h -15.06351 q -2.37302,0 -3.37038,-0.894181 -0.99736,-0.859789 -0.99736,-2.888893 0,-2.029104 0.99736,-2.923285 0.99736,-0.894181 3.37038,-0.894181 h 5.33069 l 3.23281,-6.912709 -10.42065,-23.455061 h -0.55026 q -1.85715,0 -2.85451,-0.962965 -0.96296,-0.962964 -0.96296,-2.82011 0,-2.029103 0.99735,-2.888893 0.99736,-0.85979 3.37038,-0.85979 h 8.73546 q 2.37302,0 3.37038,0.894182 0.99735,0.859789 0.99735,2.854501 0,1.857146 -0.99735,2.82011 -0.96296,0.962965 -2.78572,0.962965 z"
       id="path21" />
    <path
       style="font-weight:bold;font-size:144px;font-family:Courier;-inkscape-font-specification:'Courier Bold';text-align:center;letter-spacing:0.33px;text-anchor:middle;fill:#ffffff;stroke:#000000;stroke-width:2.44563;stroke-miterlimit:2"
       d="m -279.91275,-66.348881 h 7.39419 q 2.37302,0 3.33598,0.85979 0.96297,0.85979 0.96297,2.854502 0,2.029103 -0.99736,2.923284 -0.96296,0.894182 -3.30159,0.894182 h -23.3175 q -2.30424,0 -3.30159,-0.894182 -0.96297,-0.894181 -0.96297,-2.923284 0,-2.029104 0.92858,-2.854502 0.96296,-0.85979 3.33598,-0.85979 h 7.39419 v -29.851896 h -3.78307 q -2.33863,0 -3.37038,-0.894182 -0.99735,-0.928577 -0.99735,-2.923291 0,-2.0291 0.99735,-2.92328 0.99736,-0.89418 3.37038,-0.89418 h 10.28308 q 0.96297,0 1.47884,0.4127 0.55027,0.3783 0.55027,1.06613 z"
       id="path20" />
    <path
       style="font-weight:bold;font-size:144px;font-family:Courier;-inkscape-font-specification:'Courier Bold';text-align:center;letter-spacing:0.33px;text-anchor:middle;fill:#ffffff;stroke:#000000;stroke-width:2.44563;stroke-miterlimit:2"
       d="m -302.3279,-140.71438 2.75132,16.92066 3.6799,-13.10319 q 0.58466,-2.0635 1.47884,-2.71694 0.89418,-0.65344 2.64815,-0.65344 1.75398,0 2.64815,0.61905 0.89419,0.61905 1.51323,2.75133 l 3.81747,13.10319 2.61376,-16.92066 h -0.58465 q -1.85715,0 -2.82012,-0.96297 -0.96296,-0.96296 -0.96296,-2.8201 0,-2.02911 0.96296,-2.8889 0.99736,-0.85979 3.40477,-0.85979 h 8.08203 q 2.37301,0 3.37037,0.89419 0.99735,0.85978 0.99735,2.8545 0,1.85714 -0.99735,2.8201 -0.96297,0.96297 -2.78572,0.96297 h -0.58465 l -4.29896,21.7011 q -0.34391,1.78836 -1.58201,2.57937 -1.23809,0.82539 -3.61111,0.82539 -2.33863,0 -3.57673,-0.82539 -1.23809,-0.79101 -1.78836,-2.57937 l -4.02382,-13.37834 -3.57672,13.37834 q -0.44709,1.71957 -1.78837,2.54497 -1.34126,0.85979 -3.6455,0.85979 -2.37302,0 -3.57673,-0.82539 -1.2037,-0.79101 -1.54762,-2.57937 l -4.36773,-21.7011 h -0.58466 q -1.82275,0 -2.75132,-0.96297 -0.96297,-0.96296 -0.96297,-2.8201 0,-1.99472 0.96297,-2.8545 0.96296,-0.89419 3.33598,-0.89419 h 8.15081 q 2.37301,0 3.33598,0.89419 0.96296,0.85978 0.96296,2.8545 0,1.85714 -0.96296,2.8201 -0.92857,0.96297 -2.75133,0.96297 z"
       id="path19" />
    <path
       style="font-weight:bold;font-size:144px;font-family:Courier;-inkscape-font-specification:'Courier Bold';text-align:center;letter-spacing:0.33px;text-anchor:middle;fill:#ffffff;stroke:#000000;stroke-width:2.44563;stroke-miterlimit:2"
       d="m -320.77254,-128.91807 q 3.23281,0 5.19313,1.78836 1.99472,1.78837 1.99472,4.67726 0,2.85451 -1.99472,4.67726 -1.96032,1.78837 -5.19313,1.78837 -3.16402,0 -5.15873,-1.78837 -1.99472,-1.82275 -1.99472,-4.67726 0,-2.8545 1.99472,-4.64286 1.99471,-1.82276 5.15873,-1.82276 z"
       id="text19" />
    <path
       style="font-weight:bold;font-size:144px;font-family:Courier;-inkscape-font-specification:'Courier Bold';text-align:center;letter-spacing:0.33px;text-anchor:middle;fill:#666666;stroke:none;stroke-width:1.68;stroke-miterlimit:2;stroke-dasharray:none"
       d="m 13.336677,-73.615789 4.035846,9.551485 4.237624,-9.551485 h -0.358736 q -1.210752,0 -1.860976,-0.6278 -0.627792,-0.627801 -0.627792,-1.838551 0,-1.32286 0.627792,-1.8834 0.650224,-0.56052 2.219712,-0.56052 h 5.269016 q 1.569496,0 2.197288,0.58295 0.650224,0.56053 0.650224,1.86097 0,1.21075 -0.6278,1.838551 -0.6278,0.6278 -1.838544,0.6278 h -0.381168 l -9.215168,19.798033 h 1.00896 q 1.524648,0 2.174872,0.582956 0.67264,0.582953 0.67264,1.905813 0,1.300438 -0.67264,1.883392 -0.650224,0.582956 -2.174872,0.582956 H 8.8524132 q -1.547072,0 -2.197296,-0.582956 -0.6502159,-0.560533 -0.6502159,-1.883392 0,-1.32286 0.6502159,-1.905813 0.650224,-0.582956 2.197296,-0.582956 h 3.4753038 l 2.107607,-4.506687 -6.7936628,-15.291346 h -0.358744 q -1.2107519,0 -1.8609679,-0.6278 -0.6278,-0.627801 -0.6278,-1.838551 0,-1.32286 0.650224,-1.8834 0.650216,-0.56052 2.1972879,-0.56052 h 5.6950158 q 1.547079,0 2.197295,0.58295 0.650215,0.56053 0.650215,1.86097 0,1.21075 -0.650215,1.838551 -0.6278,0.6278 -1.816127,0.6278 z"
       id="path25" />
    <path
       style="font-weight:bold;font-size:144px;font-family:Courier;-inkscape-font-specification:'Courier Bold';text-align:center;letter-spacing:0.33px;text-anchor:middle;fill:#666666;stroke:none;stroke-width:1.68;stroke-miterlimit:2;stroke-dasharray:none"
       d="m -44.724299,-79.755693 1.793704,11.031285 2.39908,-8.542525 q 0.38116,-1.34528 0.96412,-1.77128 0.582952,-0.42601 1.72644,-0.42601 1.143488,0 1.72644,0.40359 0.58296,0.40358 0.986544,1.7937 l 2.488768,8.542525 1.704016,-11.031285 h -0.38116 q -1.210752,0 -1.838552,-0.6278 -0.627792,-0.6278 -0.627792,-1.83855 0,-1.32286 0.627792,-1.88339 0.650224,-0.56053 2.219712,-0.56053 h 5.269016 q 1.547072,0 2.197288,0.58295 0.650224,0.56054 0.650224,1.86097 0,1.21075 -0.650224,1.83855 -0.627792,0.6278 -1.816128,0.6278 h -0.38116 l -2.802664,14.147847 q -0.224216,1.16591 -1.031384,1.681601 -0.807168,0.538112 -2.35424,0.538112 -1.524648,0 -2.331816,-0.538112 -0.807168,-0.515691 -1.165912,-1.681601 l -2.623296,-8.721887 -2.331816,8.721887 q -0.29148,1.121068 -1.165912,1.65918 -0.874432,0.560533 -2.376656,0.560533 -1.547072,0 -2.331824,-0.538112 -0.784744,-0.515691 -1.00896,-1.681601 l -2.847504,-14.147847 h -0.381168 q -1.188328,0 -1.793704,-0.6278 -0.6278,-0.6278 -0.6278,-1.83855 0,-1.30043 0.6278,-1.86097 0.6278,-0.58295 2.174872,-0.58295 h 5.313856 q 1.547072,0 2.174864,0.58295 0.6278,0.56054 0.6278,1.86097 0,1.21075 -0.6278,1.83855 -0.605376,0.6278 -1.793704,0.6278 z"
       id="path27" />
    <path
       style="font-weight:bold;font-size:144px;font-family:Courier;-inkscape-font-specification:'Courier Bold';text-align:center;letter-spacing:0.33px;text-anchor:middle;fill:#666666;stroke:none;stroke-width:1.68;stroke-miterlimit:2;stroke-dasharray:none"
       d="m -57.960669,-71.42511 q 2.1076,0 3.385616,1.165908 1.30044,1.16591 1.30044,3.049302 0,1.860971 -1.30044,3.049301 -1.278016,1.165909 -3.385616,1.165909 -2.062768,0 -3.363208,-1.165909 -1.300432,-1.18833 -1.300432,-3.049301 0,-1.860969 1.300432,-3.026878 1.30044,-1.188332 3.363208,-1.188332 z"
       id="path28" />
    <path
       style="font-weight:bold;font-size:144px;font-family:Courier;-inkscape-font-specification:'Courier Bold';text-align:center;letter-spacing:0.33px;text-anchor:middle;fill:#666666;stroke:none;stroke-width:1.68;stroke-miterlimit:2;stroke-dasharray:none"
       d="m 271.98695,-105.72279 4.03585,9.551485 4.23763,-9.551485 h -0.35874 q -1.21075,0 -1.86098,-0.6278 -0.62779,-0.6278 -0.62779,-1.83855 0,-1.32286 0.62779,-1.8834 0.65023,-0.56052 2.21972,-0.56052 h 5.26901 q 1.5695,0 2.19729,0.58295 0.65022,0.56053 0.65022,1.86097 0,1.21075 -0.6278,1.83855 -0.6278,0.6278 -1.83854,0.6278 h -0.38117 l -9.21517,19.798033 h 1.00896 q 1.52465,0 2.17488,0.582956 0.67264,0.582953 0.67264,1.905813 0,1.300438 -0.67264,1.883392 -0.65023,0.582956 -2.17488,0.582956 h -9.82054 q -1.54707,0 -2.1973,-0.582956 -0.65021,-0.560533 -0.65021,-1.883392 0,-1.32286 0.65021,-1.905813 0.65023,-0.582956 2.1973,-0.582956 h 3.4753 l 2.10761,-4.506687 -6.79366,-15.291346 h -0.35875 q -1.21075,0 -1.86096,-0.6278 -0.6278,-0.6278 -0.6278,-1.83855 0,-1.32286 0.65022,-1.8834 0.65022,-0.56052 2.19729,-0.56052 h 5.69501 q 1.54708,0 2.1973,0.58295 0.65022,0.56053 0.65022,1.86097 0,1.21075 -0.65022,1.83855 -0.6278,0.6278 -1.81613,0.6278 z"
       id="path29" />
    <path
       style="font-weight:bold;font-size:144px;font-family:Courier;-inkscape-font-specification:'Courier Bold';text-align:center;letter-spacing:0.33px;text-anchor:middle;fill:#666666;stroke:none;stroke-width:1.68;stroke-miterlimit:2;stroke-dasharray:none"
       d="m 251.04067,-94.214851 h 4.82058 c 1.03138,0 1.75634,0.186844 2.17487,0.560532 0.41853,0.37369 0.62779,0.994014 0.62779,1.860972 0,0.881906 -0.21673,1.517177 -0.65021,1.905812 -0.41853,0.388637 -1.13602,0.582956 -2.15245,0.582956 h -15.20166 c -1.00149,0 -1.71897,-0.194319 -2.15245,-0.582956 -0.41853,-0.388635 -0.62779,-1.023906 -0.62779,-1.905812 0,-0.881907 0.20178,-1.502231 0.60536,-1.860972 0.41854,-0.373688 1.14349,-0.560532 2.17488,-0.560532 h 4.82058 v -20.735089 h -2.46634 c -1.01644,0 -1.74887,-0.19432 -2.19729,-0.58295 -0.43348,-0.40358 -0.65023,-1.03885 -0.65023,-1.90581 0,-0.88191 0.21675,-1.51718 0.65023,-1.90582 0.43348,-0.38863 1.16591,-0.58295 2.19729,-0.58295 h 6.70398 c 0.41853,0 0.7399,0.0897 0.96411,0.26905 0.23916,0.16443 0.35875,0.39612 0.35875,0.69507 z"
       id="path30"
       sodipodi:nodetypes="cssscsscscsccscsssscsc" />
    <path
       style="font-weight:bold;font-size:144px;font-family:Courier;-inkscape-font-specification:'Courier Bold';text-align:center;letter-spacing:0.33px;text-anchor:middle;fill:#666666;stroke:none;stroke-width:1.68;stroke-miterlimit:2;stroke-dasharray:none"
       d="m 210.24497,-105.72279 1.7937,11.031285 2.39908,-8.542525 q 0.38116,-1.34528 0.96412,-1.77128 0.58296,-0.42601 1.72644,-0.42601 1.14349,0 1.72644,0.40359 0.58296,0.40358 0.98655,1.7937 l 2.48877,8.542525 1.70401,-11.031285 h -0.38116 q -1.21075,0 -1.83855,-0.6278 -0.62779,-0.6278 -0.62779,-1.83855 0,-1.32286 0.62779,-1.88339 0.65022,-0.56053 2.21971,-0.56053 h 5.26902 q 1.54707,0 2.19729,0.58295 0.65022,0.56054 0.65022,1.86097 0,1.21075 -0.65022,1.83855 -0.6278,0.6278 -1.81613,0.6278 h -0.38116 l -2.80267,14.147847 q -0.22421,1.16591 -1.03138,1.681601 -0.80717,0.538112 -2.35424,0.538112 -1.52465,0 -2.33182,-0.538112 -0.80716,-0.515691 -1.16591,-1.681601 l -2.62329,-8.721887 -2.33182,8.721887 q -0.29148,1.121068 -1.16591,1.65918 -0.87443,0.560533 -2.37666,0.560533 -1.54707,0 -2.33182,-0.538112 -0.78475,-0.515691 -1.00896,-1.681601 l -2.84751,-14.147847 h -0.38116 q -1.18833,0 -1.79371,-0.6278 -0.6278,-0.6278 -0.6278,-1.83855 0,-1.30043 0.6278,-1.86097 0.6278,-0.58295 2.17487,-0.58295 h 5.31386 q 1.54707,0 2.17486,0.58295 0.6278,0.56054 0.6278,1.86097 0,1.21075 -0.6278,1.83855 -0.60537,0.6278 -1.7937,0.6278 z"
       id="path31" />
    <path
       style="font-weight:bold;font-size:144px;font-family:Courier;-inkscape-font-specification:'Courier Bold';text-align:center;letter-spacing:0.33px;text-anchor:middle;fill:#666666;stroke:none;stroke-width:1.68;stroke-miterlimit:2;stroke-dasharray:none"
       d="m 193.5658,-96.862545 q 2.1076,0 3.38562,1.165908 1.30044,1.16591 1.30044,3.049302 0,1.860971 -1.30044,3.049301 -1.27802,1.165909 -3.38562,1.165909 -2.06277,0 -3.36321,-1.165909 -1.30043,-1.18833 -1.30043,-3.049301 0,-1.860969 1.30043,-3.026878 1.30044,-1.188332 3.36321,-1.188332 z"
       id="path32" />
    <path
       style="font-weight:bold;font-size:144px;font-family:Courier;-inkscape-font-specification:'Courier Bold';text-align:center;letter-spacing:0.33px;text-anchor:middle;fill:#666666;fill-opacity:1;stroke:none;stroke-width:1.68;stroke-miterlimit:2;stroke-dasharray:none"
       d="m -6.111501,-78.747259 h 4.82058 c 1.03138,0 1.75634,0.186844 2.17487,0.560532 0.41853,0.37369 0.62779,0.994014 0.62779,1.860972 0,0.881906 -0.21673,1.517177 -0.65021,1.905812 -0.41853,0.388637 -1.13602,0.582956 -2.15245,0.582956 h -15.20166 c -1.00149,0 -1.71897,-0.194319 -2.15245,-0.582956 -0.41853,-0.388635 -0.62779,-1.023906 -0.62779,-1.905812 0,-0.881907 0.20178,-1.502231 0.60536,-1.860972 0.41854,-0.373688 1.14349,-0.560532 2.17488,-0.560532 h 4.82058 v -20.867504 h -2.46634 c -1.01644,0 -1.74887,-0.19432 -2.19729,-0.582957 -0.43348,-0.40358 -0.65023,-1.03885 -0.65023,-1.90581 0,-0.88191 0.21675,-1.51718 0.65023,-1.90582 0.43348,-0.38863 1.16591,-0.58295 2.19729,-0.58295 h 6.70398 c 0.41853,0 0.7399,0.0897 0.96411,0.26905 0.23916,0.16443 0.35875,0.39612 0.35875,0.69507 z"
       id="path33"
       sodipodi:nodetypes="cssscsscscsccscsssscsc" />
  </g>
  <g
     inkscape:groupmode="layer"
     id="layer3"
     inkscape:label="Layer 2"
     style="display:inline">
    <path
       style="font-weight:bold;font-size:144px;font-family:Courier;-inkscape-font-specification:'Courier Bold';text-align:center;letter-spacing:0.33px;text-anchor:middle;display:inline;fill:#000000;stroke:#f4e3d7;stroke-width:0.3;stroke-miterlimit:2;stroke-dasharray:none;stroke-opacity:1"
       d="m 84.754405,74.784178 4.478555,10.599264 4.702466,-10.599264 h -0.398095 q -1.343549,0 -2.065097,-0.696674 -0.696656,-0.696669 -0.696656,-2.040237 0,-1.467972 0.696656,-2.089996 0.721548,-0.622017 2.463192,-0.622017 h 5.84701 q 1.741674,0 2.438354,0.646899 0.72154,0.622025 0.72154,2.065114 0,1.343568 -0.69667,2.040237 -0.69667,0.696674 -2.04024,0.696674 H 99.782436 L 89.556415,96.754021 h 1.119641 q 1.691895,0 2.413421,0.646891 0.746429,0.646914 0.746429,2.114867 0,1.443101 -0.746429,2.090021 -0.721526,0.64689 -2.413421,0.64689 H 79.77823 q -1.716785,0 -2.438328,-0.64689 -0.721543,-0.62204 -0.721543,-2.090021 0,-1.467953 0.721543,-2.114867 0.721543,-0.646891 2.438328,-0.646891 h 3.856529 l 2.338806,-5.001067 -7.5389,-16.968776 h -0.398097 q -1.343564,0 -2.065108,-0.696674 -0.696665,-0.696669 -0.696665,-2.040237 0,-1.467972 0.721549,-2.089996 0.721543,-0.622017 2.438321,-0.622017 h 6.31974 q 1.716778,0 2.438321,0.646899 0.721542,0.622025 0.721542,2.065114 0,1.343568 -0.721542,2.040237 -0.696665,0.696674 -2.015348,0.696674 z"
       id="path24" />
    <path
       style="font-weight:bold;font-size:144px;font-family:Courier;-inkscape-font-specification:'Courier Bold';text-align:center;letter-spacing:0.33px;text-anchor:middle;display:inline;fill:#000000;fill-opacity:1;stroke:#f4e3d7;stroke-width:0.3;stroke-miterlimit:2;stroke-dasharray:none;stroke-opacity:1"
       d="m 89.745552,56.926222 h 5.349387 c 1.14452,0 1.948999,0.20734 2.413435,0.622017 0.464441,0.414685 0.696667,1.136384 0.696667,2.098441 0,0.978653 -0.240522,1.716924 -0.721539,2.148196 -0.464457,0.431264 -1.260641,0.646899 -2.388563,0.646899 H 78.225725 c -1.111343,0 -1.907537,-0.215635 -2.388559,-0.646899 C 75.372721,61.363604 75.1405,60.625333 75.1405,59.64668 c 0,-0.978651 0.223924,-1.700342 0.671781,-2.098441 0.464445,-0.414677 1.268922,-0.622017 2.413444,-0.622017 h 5.349383 V 34.365443 H 80.83821 c -1.127929,0 -1.940701,-0.215627 -2.438319,-0.646892 -0.481031,-0.447859 -0.721543,-1.152824 -0.721543,-2.114881 0,-0.978651 0.240512,-1.683615 0.721543,-2.114887 0.481029,-0.431259 1.293803,-0.646901 2.438319,-0.646901 h 7.43938 c 0.464445,0 0.821065,0.09952 1.069874,0.29857 0.265395,0.182461 0.398088,0.439568 0.398088,0.771312 z"
       id="path23"
       sodipodi:nodetypes="cssscsscscsccscsssscsc" />
    <path
       style="font-weight:bold;font-size:144px;font-family:Courier;-inkscape-font-specification:'Courier Bold';text-align:center;letter-spacing:0.33px;text-anchor:middle;display:inline;fill:#000000;stroke:#f4e3d7;stroke-width:0.3;stroke-miterlimit:2;stroke-dasharray:none;stroke-opacity:1"
       d="m 43.674093,62.541741 1.990463,12.241399 2.662254,-9.479632 q 0.422973,-1.492849 1.069878,-1.965585 0.646899,-0.472741 1.915828,-0.472741 1.268919,0 1.915818,0.447858 0.646906,0.447858 1.094762,1.990468 l 2.761775,9.479632 1.890942,-12.241399 h -0.422974 q -1.343566,0 -2.040231,-0.696676 -0.696666,-0.696666 -0.696666,-2.040234 0,-1.467968 0.696666,-2.08999 0.72155,-0.622016 2.463205,-0.622016 h 5.846999 q 1.716778,0 2.43832,0.646891 0.721552,0.622026 0.721552,2.065115 0,1.343568 -0.721552,2.040234 -0.696659,0.696676 -2.015344,0.696676 H 64.822812 L 61.71271,78.241578 q -0.248809,1.29381 -1.144523,1.86607 -0.895708,0.597142 -2.612486,0.597142 -1.691902,0 -2.58761,-0.597142 -0.895713,-0.57226 -1.293803,-1.86607 l -2.911061,-9.678663 -2.587602,9.678663 q -0.323461,1.244048 -1.293811,1.84119 -0.970351,0.622022 -2.63737,0.622022 -1.716779,0 -2.587609,-0.597142 -0.87083,-0.57226 -1.119639,-1.86607 L 37.777333,62.541741 h -0.422974 q -1.318689,0 -1.99047,-0.696676 -0.696667,-0.696666 -0.696667,-2.040234 0,-1.443089 0.696667,-2.065115 0.696667,-0.646891 2.413444,-0.646891 h 5.89676 q 1.716778,0 2.413445,0.646891 0.696664,0.622026 0.696664,2.065115 0,1.343568 -0.696664,2.040234 -0.671783,0.696676 -1.99047,0.696676 z"
       id="path22" />
    <path
       style="font-weight:bold;font-size:144px;font-family:Courier;-inkscape-font-specification:'Courier Bold';text-align:center;letter-spacing:0.33px;text-anchor:middle;display:inline;fill:#000000;stroke:#f4e3d7;stroke-width:0.4;stroke-miterlimit:2;stroke-dasharray:none;stroke-opacity:1"
       d="m 26.645173,72.280237 q 2.179242,0 3.5007,1.205549 1.344642,1.205547 1.344642,3.152954 0,1.924233 -1.344642,3.15296 -1.321458,1.205535 -3.5007,1.205535 -2.13287,0 -3.477512,-1.205535 -1.344637,-1.228727 -1.344637,-3.15296 0,-1.924228 1.344637,-3.129776 1.344641,-1.228727 3.477512,-1.228727 z"
       id="text21" />
  </g>
  <g
     inkscape:groupmode="layer"
     id="layer4"
     inkscape:label="corners"
     style="display:none">
    <path
       id="rect13"
       style="display:inline;fill:#000000;stroke-width:0.4;stroke-miterlimit:2"
       d="M 6.2920523,6.2920523 H 38.201741 L 6.2920523,38.201741 Z"
       sodipodi:nodetypes="cccc" />
    <path
       id="path13"
       style="display:inline;fill:#000000;stroke-width:0.4;stroke-miterlimit:2"
       d="M 121.70795,6.2920523 V 38.201741 L 89.798257,6.2920523 Z"
       sodipodi:nodetypes="cccc" />
    <path
       id="path14"
       style="display:inline;fill:#000000;stroke-width:0.4;stroke-miterlimit:2"
       d="M 121.70795,121.70795 H 89.798259 L 121.70795,89.798254 Z"
       sodipodi:nodetypes="cccc" />
    <path
       id="path15"
       style="display:inline;fill:#000000;stroke-width:0.4;stroke-miterlimit:2"
       d="M 6.2920523,121.70795 V 89.798256 L 38.201745,121.70795 Z"
       sodipodi:nodetypes="cccc" />
  </g>
</svg>
