<?xml version="1.0" encoding="UTF-8" standalone="no"?>
<!-- Created with Inkscape (http://www.inkscape.org/) -->

<svg
   width="128"
   height="128"
   viewBox="0 0 128 128"
   version="1.1"
   id="svg1"
   inkscape:version="1.3.2 (091e20e, 2023-11-25)"
   sodipodi:docname="logo.svg"
   inkscape:export-filename="logo.png"
   inkscape:export-xdpi="192"
   inkscape:export-ydpi="192"
   xmlns:inkscape="http://www.inkscape.org/namespaces/inkscape"
   xmlns:sodipodi="http://sodipodi.sourceforge.net/DTD/sodipodi-0.dtd"
   xmlns="http://www.w3.org/2000/svg"
   xmlns:svg="http://www.w3.org/2000/svg">
  <sodipodi:namedview
     id="namedview1"
     pagecolor="#ffffff"
     bordercolor="#000000"
     borderopacity="0.25"
     inkscape:showpageshadow="2"
     inkscape:pageopacity="0.0"
     inkscape:pagecheckerboard="0"
     inkscape:deskcolor="#d1d1d1"
     inkscape:zoom="1.888"
     inkscape:cx="75.476695"
     inkscape:cy="79.449153"
     inkscape:window-width="1728"
     inkscape:window-height="1051"
     inkscape:window-x="0"
     inkscape:window-y="34"
     inkscape:window-maximized="0"
     inkscape:current-layer="layer3"
     showguides="true" />
  <defs
     id="defs1" />
  <g
     inkscape:groupmode="layer"
     id="layer2"
     inkscape:label="colors"
     sodipodi:insensitive="true"
     style="display:none">
    <rect
       style="fill:#acffb7;fill-opacity:1;stroke:#ff00ff;stroke-width:0;stroke-miterlimit:2;stroke-opacity:0.721264"
       id="rect1"
       width="202.71794"
       height="22.779669"
       x="-53.604092"
       y="-180.80502"
       transform="rotate(-45,244.18561,-26.194155)" />
    <rect
       style="fill:#caffed;fill-opacity:1;stroke:#ff00ff;stroke-width:0;stroke-miterlimit:2;stroke-opacity:0.721264"
       id="rect2"
       width="202.71794"
       height="22.779669"
       x="-53.604092"
       y="-158.02534"
       transform="rotate(-45,244.18561,-26.194155)" />
    <rect
       style="fill:#a3f5ff;fill-opacity:1;stroke:#ff00ff;stroke-width:0;stroke-miterlimit:2;stroke-opacity:0.721264"
       id="rect3"
       width="202.71794"
       height="22.779669"
       x="-53.604092"
       y="-135.24568"
       transform="rotate(-45,244.18561,-26.194155)" />
    <rect
       style="fill:#ffe6d5;stroke:#ff00ff;stroke-width:0;stroke-miterlimit:2;stroke-opacity:0.721264"
       id="rect4"
       width="202.71794"
       height="22.779669"
       x="-53.604092"
       y="-66.90667"
       transform="rotate(-45,244.18561,-26.194155)" />
    <rect
       style="fill:#dedbf5;fill-opacity:1;stroke:#ff00ff;stroke-width:0;stroke-miterlimit:2;stroke-opacity:0.721264"
       id="rect5"
       width="202.71794"
       height="22.779669"
       x="-53.604092"
       y="-89.68634"
       transform="rotate(-45,244.18561,-26.194155)" />
    <rect
       style="fill:#95e5ff;fill-opacity:1;stroke:#ff00ff;stroke-width:0;stroke-miterlimit:2;stroke-opacity:0.721264"
       id="rect6"
       width="202.71794"
       height="22.779669"
       x="-53.604092"
       y="-112.46601"
       transform="rotate(-45,244.18561,-26.194155)" />
    <rect
       style="fill:#fff2bc;fill-opacity:1;stroke:#ff00ff;stroke-width:0;stroke-miterlimit:2;stroke-opacity:0.721264"
       id="rect7"
       width="202.71794"
       height="22.779669"
       x="-53.604092"
       y="-44.127003"
       transform="rotate(-45,244.18561,-26.194155)" />
    <rect
       style="fill:#eeffd5;fill-opacity:1;stroke:#ff00ff;stroke-width:0;stroke-miterlimit:2;stroke-opacity:0.721264"
       id="rect8"
       width="202.71794"
       height="22.779669"
       x="-53.604092"
       y="-21.34733"
       transform="rotate(-45,244.18561,-26.194155)" />
  </g>
  <g
     inkscape:label="Layer 1"
     inkscape:groupmode="layer"
     id="layer1"
     transform="translate(90.042374,164.99321)"
     style="display:none">
    <text
       xml:space="preserve"
       style="font-size:144px;font-family:Ov;-inkscape-font-specification:Ov;text-align:center;letter-spacing:0.33px;text-anchor:middle;fill:#dedbf5;fill-opacity:1;stroke:#ff00ff;stroke-width:5;stroke-miterlimit:2;stroke-dasharray:none;stroke-opacity:0.721264"
       x="-79.978813"
       y="-292.64151"
       id="text17"><tspan
         sodipodi:role="line"
         id="tspan17"
         x="-79.813812"
         y="-292.64151"
         style="font-style:normal;font-variant:normal;font-weight:bold;font-stretch:normal;font-family:Courier;-inkscape-font-specification:'Courier Bold';fill:#ffffff;stroke:#000000;stroke-width:5;stroke-dasharray:none;stroke-opacity:1">.wly</tspan></text>
    <path
       style="font-weight:bold;font-size:144px;font-family:Courier;-inkscape-font-specification:'Courier Bold';text-align:center;letter-spacing:0.33px;text-anchor:middle;fill:#ffffff;stroke:#000000;stroke-width:2.44563;stroke-miterlimit:2"
       d="m -254.12311,-83.063191 6.19049,14.650815 6.50001,-14.650815 h -0.55027 q -1.85714,0 -2.8545,-0.962965 -0.96296,-0.962964 -0.96296,-2.82011 0,-2.029103 0.96296,-2.888893 0.99736,-0.85979 3.40477,-0.85979 h 8.08202 q 2.40741,0 3.37038,0.894182 0.99735,0.859789 0.99735,2.854501 0,1.857146 -0.96296,2.82011 -0.96297,0.962965 -2.82011,0.962965 h -0.58466 l -14.13494,30.36777 h 1.54762 q 2.33863,0 3.33598,0.894181 1.03175,0.894181 1.03175,2.923285 0,1.994712 -1.03175,2.888893 -0.99735,0.894181 -3.33598,0.894181 h -15.06351 q -2.37302,0 -3.37038,-0.894181 -0.99736,-0.859789 -0.99736,-2.888893 0,-2.029104 0.99736,-2.923285 0.99736,-0.894181 3.37038,-0.894181 h 5.33069 l 3.23281,-6.912709 -10.42065,-23.455061 h -0.55026 q -1.85715,0 -2.85451,-0.962965 -0.96296,-0.962964 -0.96296,-2.82011 0,-2.029103 0.99735,-2.888893 0.99736,-0.85979 3.37038,-0.85979 h 8.73546 q 2.37302,0 3.37038,0.894182 0.99735,0.859789 0.99735,2.854501 0,1.857146 -0.99735,2.82011 -0.96296,0.962965 -2.78572,0.962965 z"
       id="path21" />
    <path
       style="font-weight:bold;font-size:144px;font-family:Courier;-inkscape-font-specification:'Courier Bold';text-align:center;letter-spacing:0.33px;text-anchor:middle;fill:#ffffff;stroke:#000000;stroke-width:2.44563;stroke-miterlimit:2"
       d="m -279.91275,-66.348881 h 7.39419 q 2.37302,0 3.33598,0.85979 0.96297,0.85979 0.96297,2.854502 0,2.029103 -0.99736,2.923284 -0.96296,0.894182 -3.30159,0.894182 h -23.3175 q -2.30424,0 -3.30159,-0.894182 -0.96297,-0.894181 -0.96297,-2.923284 0,-2.029104 0.92858,-2.854502 0.96296,-0.85979 3.33598,-0.85979 h 7.39419 v -29.851896 h -3.78307 q -2.33863,0 -3.37038,-0.894182 -0.99735,-0.928577 -0.99735,-2.923291 0,-2.0291 0.99735,-2.92328 0.99736,-0.89418 3.37038,-0.89418 h 10.28308 q 0.96297,0 1.47884,0.4127 0.55027,0.3783 0.55027,1.06613 z"
       id="path20" />
    <path
       style="font-weight:bold;font-size:144px;font-family:Courier;-inkscape-font-specification:'Courier Bold';text-align:center;letter-spacing:0.33px;text-anchor:middle;fill:#ffffff;stroke:#000000;stroke-width:2.44563;stroke-miterlimit:2"
       d="m -302.3279,-140.71438 2.75132,16.92066 3.6799,-13.10319 q 0.58466,-2.0635 1.47884,-2.71694 0.89418,-0.65344 2.64815,-0.65344 1.75398,0 2.64815,0.61905 0.89419,0.61905 1.51323,2.75133 l 3.81747,13.10319 2.61376,-16.92066 h -0.58465 q -1.85715,0 -2.82012,-0.96297 -0.96296,-0.96296 -0.96296,-2.8201 0,-2.02911 0.96296,-2.8889 0.99736,-0.85979 3.40477,-0.85979 h 8.08203 q 2.37301,0 3.37037,0.89419 0.99735,0.85978 0.99735,2.8545 0,1.85714 -0.99735,2.8201 -0.96297,0.96297 -2.78572,0.96297 h -0.58465 l -4.29896,21.7011 q -0.34391,1.78836 -1.58201,2.57937 -1.23809,0.82539 -3.61111,0.82539 -2.33863,0 -3.57673,-0.82539 -1.23809,-0.79101 -1.78836,-2.57937 l -4.02382,-13.37834 -3.57672,13.37834 q -0.44709,1.71957 -1.78837,2.54497 -1.34126,0.85979 -3.6455,0.85979 -2.37302,0 -3.57673,-0.82539 -1.2037,-0.79101 -1.54762,-2.57937 l -4.36773,-21.7011 h -0.58466 q -1.82275,0 -2.75132,-0.96297 -0.96297,-0.96296 -0.96297,-2.8201 0,-1.99472 0.96297,-2.8545 0.96296,-0.89419 3.33598,-0.89419 h 8.15081 q 2.37301,0 3.33598,0.89419 0.96296,0.85978 0.96296,2.8545 0,1.85714 -0.96296,2.8201 -0.92857,0.96297 -2.75133,0.96297 z"
       id="path19" />
    <path
       style="font-weight:bold;font-size:144px;font-family:Courier;-inkscape-font-specification:'Courier Bold';text-align:center;letter-spacing:0.33px;text-anchor:middle;fill:#ffffff;stroke:#000000;stroke-width:2.44563;stroke-miterlimit:2"
       d="m -320.77254,-128.91807 q 3.23281,0 5.19313,1.78836 1.99472,1.78837 1.99472,4.67726 0,2.85451 -1.99472,4.67726 -1.96032,1.78837 -5.19313,1.78837 -3.16402,0 -5.15873,-1.78837 -1.99472,-1.82275 -1.99472,-4.67726 0,-2.8545 1.99472,-4.64286 1.99471,-1.82276 5.15873,-1.82276 z"
       id="text19" />
    <path
       style="font-weight:bold;font-size:144px;font-family:Courier;-inkscape-font-specification:'Courier Bold';text-align:center;letter-spacing:0.33px;text-anchor:middle;fill:#666666;stroke:none;stroke-width:1.68;stroke-miterlimit:2;stroke-dasharray:none"
       d="m 13.336677,-73.615789 4.035846,9.551485 4.237624,-9.551485 h -0.358736 q -1.210752,0 -1.860976,-0.6278 -0.627792,-0.627801 -0.627792,-1.838551 0,-1.32286 0.627792,-1.8834 0.650224,-0.56052 2.219712,-0.56052 h 5.269016 q 1.569496,0 2.197288,0.58295 0.650224,0.56053 0.650224,1.86097 0,1.21075 -0.6278,1.838551 -0.6278,0.6278 -1.838544,0.6278 h -0.381168 l -9.215168,19.798033 h 1.00896 q 1.524648,0 2.174872,0.582956 0.67264,0.582953 0.67264,1.905813 0,1.300438 -0.67264,1.883392 -0.650224,0.582956 -2.174872,0.582956 H 8.8524132 q -1.547072,0 -2.197296,-0.582956 -0.6502159,-0.560533 -0.6502159,-1.883392 0,-1.32286 0.6502159,-1.905813 0.650224,-0.582956 2.197296,-0.582956 h 3.4753038 l 2.107607,-4.506687 -6.7936628,-15.291346 h -0.358744 q -1.2107519,0 -1.8609679,-0.6278 -0.6278,-0.627801 -0.6278,-1.838551 0,-1.32286 0.650224,-1.8834 0.650216,-0.56052 2.1972879,-0.56052 h 5.6950158 q 1.547079,0 2.197295,0.58295 0.650215,0.56053 0.650215,1.86097 0,1.21075 -0.650215,1.838551 -0.6278,0.6278 -1.816127,0.6278 z"
       id="path25" />
    <path
       style="font-weight:bold;font-size:144px;font-family:Courier;-inkscape-font-specification:'Courier Bold';text-align:center;letter-spacing:0.33px;text-anchor:middle;fill:#666666;stroke:none;stroke-width:1.68;stroke-miterlimit:2;stroke-dasharray:none"
       d="m -44.724299,-79.755693 1.793704,11.031285 2.39908,-8.542525 q 0.38116,-1.34528 0.96412,-1.77128 0.582952,-0.42601 1.72644,-0.42601 1.143488,0 1.72644,0.40359 0.58296,0.40358 0.986544,1.7937 l 2.488768,8.542525 1.704016,-11.031285 h -0.38116 q -1.210752,0 -1.838552,-0.6278 -0.627792,-0.6278 -0.627792,-1.83855 0,-1.32286 0.627792,-1.88339 0.650224,-0.56053 2.219712,-0.56053 h 5.269016 q 1.547072,0 2.197288,0.58295 0.650224,0.56054 0.650224,1.86097 0,1.21075 -0.650224,1.83855 -0.627792,0.6278 -1.816128,0.6278 h -0.38116 l -2.802664,14.147847 q -0.224216,1.16591 -1.031384,1.681601 -0.807168,0.538112 -2.35424,0.538112 -1.524648,0 -2.331816,-0.538112 -0.807168,-0.515691 -1.165912,-1.681601 l -2.623296,-8.721887 -2.331816,8.721887 q -0.29148,1.121068 -1.165912,1.65918 -0.874432,0.560533 -2.376656,0.560533 -1.547072,0 -2.331824,-0.538112 -0.784744,-0.515691 -1.00896,-1.681601 l -2.847504,-14.147847 h -0.381168 q -1.188328,0 -1.793704,-0.6278 -0.6278,-0.6278 -0.6278,-1.83855 0,-1.30043 0.6278,-1.86097 0.6278,-0.58295 2.174872,-0.58295 h 5.313856 q 1.547072,0 2.174864,0.58295 0.6278,0.56054 0.6278,1.86097 0,1.21075 -0.6278,1.83855 -0.605376,0.6278 -1.793704,0.6278 z"
       id="path27" />
    <path
       style="font-weight:bold;font-size:144px;font-family:Courier;-inkscape-font-specification:'Courier Bold';text-align:center;letter-spacing:0.33px;text-anchor:middle;fill:#666666;stroke:none;stroke-width:1.68;stroke-miterlimit:2;stroke-dasharray:none"
       d="m -57.960669,-71.42511 q 2.1076,0 3.385616,1.165908 1.30044,1.16591 1.30044,3.049302 0,1.860971 -1.30044,3.049301 -1.278016,1.165909 -3.385616,1.165909 -2.062768,0 -3.363208,-1.165909 -1.300432,-1.18833 -1.300432,-3.049301 0,-1.860969 1.300432,-3.026878 1.30044,-1.188332 3.363208,-1.188332 z"
       id="path28" />
    <path
       style="font-weight:bold;font-size:144px;font-family:Courier;-inkscape-font-specification:'Courier Bold';text-align:center;letter-spacing:0.33px;text-anchor:middle;fill:#666666;stroke:none;stroke-width:1.68;stroke-miterlimit:2;stroke-dasharray:none"
       d="m 271.98695,-105.72279 4.03585,9.551485 4.23763,-9.551485 h -0.35874 q -1.21075,0 -1.86098,-0.6278 -0.62779,-0.6278 -0.62779,-1.83855 0,-1.32286 0.62779,-1.8834 0.65023,-0.56052 2.21972,-0.56052 h 5.26901 q 1.5695,0 2.19729,0.58295 0.65022,0.56053 0.65022,1.86097 0,1.21075 -0.6278,1.83855 -0.6278,0.6278 -1.83854,0.6278 h -0.38117 l -9.21517,19.798033 h 1.00896 q 1.52465,0 2.17488,0.582956 0.67264,0.582953 0.67264,1.905813 0,1.300438 -0.67264,1.883392 -0.65023,0.582956 -2.17488,0.582956 h -9.82054 q -1.54707,0 -2.1973,-0.582956 -0.65021,-0.560533 -0.65021,-1.883392 0,-1.32286 0.65021,-1.905813 0.65023,-0.582956 2.1973,-0.582956 h 3.4753 l 2.10761,-4.506687 -6.79366,-15.291346 h -0.35875 q -1.21075,0 -1.86096,-0.6278 -0.6278,-0.6278 -0.6278,-1.83855 0,-1.32286 0.65022,-1.8834 0.65022,-0.56052 2.19729,-0.56052 h 5.69501 q 1.54708,0 2.1973,0.58295 0.65022,0.56053 0.65022,1.86097 0,1.21075 -0.65022,1.83855 -0.6278,0.6278 -1.81613,0.6278 z"
       id="path29" />
    <path
       style="font-weight:bold;font-size:144px;font-family:Courier;-inkscape-font-specification:'Courier Bold';text-align:center;letter-spacing:0.33px;text-anchor:middle;fill:#666666;stroke:none;stroke-width:1.68;stroke-miterlimit:2;stroke-dasharray:none"
       d="m 251.04067,-94.214851 h 4.82058 c 1.03138,0 1.75634,0.186844 2.17487,0.560532 0.41853,0.37369 0.62779,0.994014 0.62779,1.860972 0,0.881906 -0.21673,1.517177 -0.65021,1.905812 -0.41853,0.388637 -1.13602,0.582956 -2.15245,0.582956 h -15.20166 c -1.00149,0 -1.71897,-0.194319 -2.15245,-0.582956 -0.41853,-0.388635 -0.62779,-1.023906 -0.62779,-1.905812 0,-0.881907 0.20178,-1.502231 0.60536,-1.860972 0.41854,-0.373688 1.14349,-0.560532 2.17488,-0.560532 h 4.82058 v -20.735089 h -2.46634 c -1.01644,0 -1.74887,-0.19432 -2.19729,-0.58295 -0.43348,-0.40358 -0.65023,-1.03885 -0.65023,-1.90581 0,-0.88191 0.21675,-1.51718 0.65023,-1.90582 0.43348,-0.38863 1.16591,-0.58295 2.19729,-0.58295 h 6.70398 c 0.41853,0 0.7399,0.0897 0.96411,0.26905 0.23916,0.16443 0.35875,0.39612 0.35875,0.69507 z"
       id="path30"
       sodipodi:nodetypes="cssscsscscsccscsssscsc" />
    <path
       style="font-weight:bold;font-size:144px;font-family:Courier;-inkscape-font-specification:'Courier Bold';text-align:center;letter-spacing:0.33px;text-anchor:middle;fill:#666666;stroke:none;stroke-width:1.68;stroke-miterlimit:2;stroke-dasharray:none"
       d="m 210.24497,-105.72279 1.7937,11.031285 2.39908,-8.542525 q 0.38116,-1.34528 0.96412,-1.77128 0.58296,-0.42601 1.72644,-0.42601 1.14349,0 1.72644,0.40359 0.58296,0.40358 0.98655,1.7937 l 2.48877,8.542525 1.70401,-11.031285 h -0.38116 q -1.21075,0 -1.83855,-0.6278 -0.62779,-0.6278 -0.62779,-1.83855 0,-1.32286 0.62779,-1.88339 0.65022,-0.56053 2.21971,-0.56053 h 5.26902 q 1.54707,0 2.19729,0.58295 0.65022,0.56054 0.65022,1.86097 0,1.21075 -0.65022,1.83855 -0.6278,0.6278 -1.81613,0.6278 h -0.38116 l -2.80267,14.147847 q -0.22421,1.16591 -1.03138,1.681601 -0.80717,0.538112 -2.35424,0.538112 -1.52465,0 -2.33182,-0.538112 -0.80716,-0.515691 -1.16591,-1.681601 l -2.62329,-8.721887 -2.33182,8.721887 q -0.29148,1.121068 -1.16591,1.65918 -0.87443,0.560533 -2.37666,0.560533 -1.54707,0 -2.33182,-0.538112 -0.78475,-0.515691 -1.00896,-1.681601 l -2.84751,-14.147847 h -0.38116 q -1.18833,0 -1.79371,-0.6278 -0.6278,-0.6278 -0.6278,-1.83855 0,-1.30043 0.6278,-1.86097 0.6278,-0.58295 2.17487,-0.58295 h 5.31386 q 1.54707,0 2.17486,0.58295 0.6278,0.56054 0.6278,1.86097 0,1.21075 -0.6278,1.83855 -0.60537,0.6278 -1.7937,0.6278 z"
       id="path31" />
    <path
       style="font-weight:bold;font-size:144px;font-family:Courier;-inkscape-font-specification:'Courier Bold';text-align:center;letter-spacing:0.33px;text-anchor:middle;fill:#666666;stroke:none;stroke-width:1.68;stroke-miterlimit:2;stroke-dasharray:none"
       d="m 193.5658,-96.862545 q 2.1076,0 3.38562,1.165908 1.30044,1.16591 1.30044,3.049302 0,1.860971 -1.30044,3.049301 -1.27802,1.165909 -3.38562,1.165909 -2.06277,0 -3.36321,-1.165909 -1.30043,-1.18833 -1.30043,-3.049301 0,-1.860969 1.30043,-3.026878 1.30044,-1.188332 3.36321,-1.188332 z"
       id="path32" />
    <path
       style="font-weight:bold;font-size:144px;font-family:Courier;-inkscape-font-specification:'Courier Bold';text-align:center;letter-spacing:0.33px;text-anchor:middle;fill:#666666;fill-opacity:1;stroke:none;stroke-width:1.68;stroke-miterlimit:2;stroke-dasharray:none"
       d="m -6.111501,-78.747259 h 4.82058 c 1.03138,0 1.75634,0.186844 2.17487,0.560532 0.41853,0.37369 0.62779,0.994014 0.62779,1.860972 0,0.881906 -0.21673,1.517177 -0.65021,1.905812 -0.41853,0.388637 -1.13602,0.582956 -2.15245,0.582956 h -15.20166 c -1.00149,0 -1.71897,-0.194319 -2.15245,-0.582956 -0.41853,-0.388635 -0.62779,-1.023906 -0.62779,-1.905812 0,-0.881907 0.20178,-1.502231 0.60536,-1.860972 0.41854,-0.373688 1.14349,-0.560532 2.17488,-0.560532 h 4.82058 v -20.867504 h -2.46634 c -1.01644,0 -1.74887,-0.19432 -2.19729,-0.582957 -0.43348,-0.40358 -0.65023,-1.03885 -0.65023,-1.90581 0,-0.88191 0.21675,-1.51718 0.65023,-1.90582 0.43348,-0.38863 1.16591,-0.58295 2.19729,-0.58295 h 6.70398 c 0.41853,0 0.7399,0.0897 0.96411,0.26905 0.23916,0.16443 0.35875,0.39612 0.35875,0.69507 z"
       id="path33"
       sodipodi:nodetypes="cssscsscscsccscsssscsc" />
  </g>
  <g
     inkscape:groupmode="layer"
     id="layer3"
     inkscape:label="Layer 2"
     style="display:inline">
    <rect
       style="fill:#f1dbcc;fill-opacity:1;stroke:none;stroke-width:2.1;stroke-miterlimit:2;stroke-dasharray:none;stroke-opacity:1"
       id="rect32"
       width="128"
       height="128"
       x="0"
       y="0" />
    <path
       style="font-weight:bold;font-size:144px;font-family:Courier;-inkscape-font-specification:'Courier Bold';text-align:center;letter-spacing:0.33px;text-anchor:middle;display:inline;fill:#000000;stroke:none;stroke-width:2.02766;stroke-miterlimit:2;stroke-dasharray:none"
       d="m 86.454862,75.127465 4.871028,11.52809 5.114561,-11.52809 h -0.43298 q -1.46129,0 -2.24607,-0.757725 -0.757708,-0.757718 -0.757708,-2.219024 0,-1.596613 0.757708,-2.273146 0.78478,-0.676524 2.67905,-0.676524 h 6.359399 q 1.89428,0 2.65201,0.703588 0.78478,0.676533 0.78478,2.246082 0,1.461306 -0.75773,2.219024 -0.75771,0.757725 -2.21902,0.757725 h -0.46004 L 91.67769,99.022548 h 1.217761 q 1.840162,0 2.624919,0.703581 0.811841,0.703601 0.811841,2.300201 0,1.56957 -0.811841,2.27317 -0.784757,0.70358 -2.624919,0.70358 H 81.042604 q -1.867234,0 -2.652008,-0.70358 -0.784775,-0.67653 -0.784775,-2.27317 0,-1.5966 0.784775,-2.300201 0.784774,-0.703581 2.652008,-0.703581 h 4.194493 l 2.543765,-5.439315 -8.199564,-18.455768 h -0.432985 q -1.461306,0 -2.246081,-0.757725 -0.757717,-0.757718 -0.757717,-2.219024 0,-1.596613 0.784782,-2.273146 0.784774,-0.676524 2.652001,-0.676524 h 6.873564 q 1.867226,0 2.652001,0.703588 0.784773,0.676533 0.784773,2.246082 0,1.461306 -0.784773,2.219024 -0.757718,0.757725 -2.191961,0.757725 z"
       id="path24" />
    <path
       style="font-weight:bold;font-size:144px;font-family:Courier;-inkscape-font-specification:'Courier Bold';text-align:center;letter-spacing:0.33px;text-anchor:middle;display:inline;fill:#000000;stroke:none;stroke-width:2.02766;stroke-miterlimit:2;stroke-dasharray:none"
       d="m 92.029467,56.317421 h 5.818176 c 1.244819,0 2.119797,0.225508 2.624937,0.676524 0.50514,0.451024 0.75772,1.199725 0.75772,2.246089 0,1.064411 -0.2616,1.831137 -0.78478,2.300202 -0.505154,0.469056 -1.371111,0.703589 -2.597877,0.703589 H 79.500112 c -1.208734,0 -2.074702,-0.234533 -2.597879,-0.703589 -0.505146,-0.469065 -0.757718,-1.235791 -0.757718,-2.300202 0,-1.064412 0.243549,-1.813105 0.730653,-2.246089 0.505146,-0.451016 1.380121,-0.676524 2.624944,-0.676524 h 5.81817 V 31.743374 H 82.34154 c -1.226775,0 -2.110774,-0.234524 -2.652,-0.70358 -0.523186,-0.487105 -0.784775,-1.253847 -0.784775,-2.30021 0,-1.064412 0.261589,-1.831153 0.784775,-2.300217 0.523185,-0.469049 1.407184,-0.70359 2.652,-0.70359 h 8.091322 c 0.505146,0 0.893018,0.108242 1.16363,0.324735 0.288653,0.198451 0.432975,0.478088 0.432975,0.838903 z"
       id="path23"
       sodipodi:nodetypes="cssscsscscsccscsssscsc" />
    <path
       style="font-weight:bold;font-size:144px;font-family:Courier;-inkscape-font-specification:'Courier Bold';text-align:center;letter-spacing:0.33px;text-anchor:middle;display:inline;fill:#000000;stroke:none;stroke-width:2.02766;stroke-miterlimit:2;stroke-dasharray:none"
       d="m 43.806915,62.338933 2.164895,13.314125 2.895557,-10.31034 q 0.460041,-1.62367 1.163637,-2.137832 0.70359,-0.514168 2.083718,-0.514168 1.380121,0 2.08371,0.487104 0.703597,0.487104 1.190702,2.164896 l 3.003798,10.31034 2.056654,-13.314125 h -0.46004 q -1.461308,0 -2.219025,-0.757725 -0.757718,-0.757717 -0.757718,-2.219023 0,-1.596606 0.757718,-2.273138 0.784782,-0.676524 2.679065,-0.676524 h 6.359395 q 1.867227,0 2.652,0.70358 0.784784,0.676534 0.784784,2.246082 0,1.461306 -0.784784,2.219023 -0.75771,0.757725 -2.191958,0.757725 h -0.460042 l -3.382653,17.075632 q -0.270612,1.407187 -1.244822,2.029597 -0.974202,0.649468 -2.841428,0.649468 -1.84017,0 -2.814372,-0.649468 -0.974209,-0.62241 -1.407186,-2.029597 L 51.952351,68.88775 49.137988,79.414565 q -0.351807,1.353066 -1.407193,2.002534 -1.055387,0.676531 -2.868493,0.676531 -1.867226,0 -2.814372,-0.649468 -0.947144,-0.62241 -1.217757,-2.029597 L 37.393398,62.338933 h -0.46004 q -1.434251,0 -2.164904,-0.757725 -0.757718,-0.757717 -0.757718,-2.219023 0,-1.569548 0.757718,-2.246082 0.757719,-0.70358 2.624944,-0.70358 h 6.413517 q 1.867226,0 2.624944,0.70358 0.757717,0.676534 0.757717,2.246082 0,1.461306 -0.757717,2.219023 -0.730653,0.757725 -2.164903,0.757725 z"
       id="path22" />
    <path
       style="font-weight:bold;font-size:144px;font-family:Courier;-inkscape-font-specification:'Courier Bold';text-align:center;letter-spacing:0.33px;text-anchor:middle;display:inline;fill:#000000;stroke:none;stroke-width:2.02766;stroke-miterlimit:2;stroke-dasharray:none"
       d="m 27.548496,72.38112 q 2.543758,0 4.086251,1.407193 1.569556,1.407193 1.569556,3.680331 0,2.246088 -1.569556,3.680338 -1.542493,1.407178 -4.086251,1.407178 -2.489629,0 -4.059186,-1.407178 -1.569549,-1.43425 -1.569549,-3.680338 0,-2.246082 1.569549,-3.653275 1.569556,-1.434249 4.059186,-1.434249 z"
       id="text21" />
  </g>
</svg>
