<?xml version="1.0" encoding="UTF-8" standalone="no"?>
<!-- Created with Inkscape (http://www.inkscape.org/) -->

<svg
   width="128"
   height="128"
   viewBox="0 0 128 128"
   version="1.1"
   id="svg1"
   inkscape:version="1.3.2 (091e20e, 2023-11-25)"
   sodipodi:docname="logo.svg"
   inkscape:export-filename="logo.png"
   inkscape:export-xdpi="100"
   inkscape:export-ydpi="100"
   xmlns:inkscape="http://www.inkscape.org/namespaces/inkscape"
   xmlns:sodipodi="http://sodipodi.sourceforge.net/DTD/sodipodi-0.dtd"
   xmlns="http://www.w3.org/2000/svg"
   xmlns:svg="http://www.w3.org/2000/svg">
  <sodipodi:namedview
     id="namedview1"
     pagecolor="#ffffff"
     bordercolor="#000000"
     borderopacity="0.25"
     inkscape:showpageshadow="2"
     inkscape:pageopacity="0.0"
     inkscape:pagecheckerboard="0"
     inkscape:deskcolor="#d1d1d1"
     inkscape:zoom="2.6700352"
     inkscape:cx="61.235148"
     inkscape:cy="1.1235807"
     inkscape:window-width="1728"
     inkscape:window-height="1051"
     inkscape:window-x="0"
     inkscape:window-y="34"
     inkscape:window-maximized="0"
     inkscape:current-layer="layer3"
     showguides="true">
    <sodipodi:guide
       position="-37.45269,118.63683"
       orientation="0,-1"
       id="guide28"
       inkscape:locked="false" />
  </sodipodi:namedview>
  <defs
     id="defs1" />
  <g
     inkscape:groupmode="layer"
     id="layer2"
     inkscape:label="colors"
     sodipodi:insensitive="true"
     style="display:none">
    <rect
       style="fill:#acffb7;fill-opacity:1;stroke:#ff00ff;stroke-width:0;stroke-miterlimit:2;stroke-opacity:0.721264"
       id="rect1"
       width="202.71794"
       height="22.779669"
       x="-53.604092"
       y="-180.80502"
       transform="rotate(-45,244.18561,-26.194155)" />
    <rect
       style="fill:#caffed;fill-opacity:1;stroke:#ff00ff;stroke-width:0;stroke-miterlimit:2;stroke-opacity:0.721264"
       id="rect2"
       width="202.71794"
       height="22.779669"
       x="-53.604092"
       y="-158.02534"
       transform="rotate(-45,244.18561,-26.194155)" />
    <rect
       style="fill:#a3f5ff;fill-opacity:1;stroke:#ff00ff;stroke-width:0;stroke-miterlimit:2;stroke-opacity:0.721264"
       id="rect3"
       width="202.71794"
       height="22.779669"
       x="-53.604092"
       y="-135.24568"
       transform="rotate(-45,244.18561,-26.194155)" />
    <rect
       style="fill:#ffe6d5;stroke:#ff00ff;stroke-width:0;stroke-miterlimit:2;stroke-opacity:0.721264"
       id="rect4"
       width="202.71794"
       height="22.779669"
       x="-53.604092"
       y="-66.90667"
       transform="rotate(-45,244.18561,-26.194155)" />
    <rect
       style="fill:#dedbf5;fill-opacity:1;stroke:#ff00ff;stroke-width:0;stroke-miterlimit:2;stroke-opacity:0.721264"
       id="rect5"
       width="202.71794"
       height="22.779669"
       x="-53.604092"
       y="-89.68634"
       transform="rotate(-45,244.18561,-26.194155)" />
    <rect
       style="fill:#95e5ff;fill-opacity:1;stroke:#ff00ff;stroke-width:0;stroke-miterlimit:2;stroke-opacity:0.721264"
       id="rect6"
       width="202.71794"
       height="22.779669"
       x="-53.604092"
       y="-112.46601"
       transform="rotate(-45,244.18561,-26.194155)" />
    <rect
       style="fill:#fff2bc;fill-opacity:1;stroke:#ff00ff;stroke-width:0;stroke-miterlimit:2;stroke-opacity:0.721264"
       id="rect7"
       width="202.71794"
       height="22.779669"
       x="-53.604092"
       y="-44.127003"
       transform="rotate(-45,244.18561,-26.194155)" />
    <rect
       style="fill:#eeffd5;fill-opacity:1;stroke:#ff00ff;stroke-width:0;stroke-miterlimit:2;stroke-opacity:0.721264"
       id="rect8"
       width="202.71794"
       height="22.779669"
       x="-53.604092"
       y="-21.34733"
       transform="rotate(-45,244.18561,-26.194155)" />
  </g>
  <g
     inkscape:label="Layer 1"
     inkscape:groupmode="layer"
     id="layer1"
     transform="translate(90.042374,164.99321)"
     style="display:none">
    <text
       xml:space="preserve"
       style="font-size:144px;font-family:Ov;-inkscape-font-specification:Ov;text-align:center;letter-spacing:0.33px;text-anchor:middle;fill:#dedbf5;fill-opacity:1;stroke:#ff00ff;stroke-width:5;stroke-miterlimit:2;stroke-dasharray:none;stroke-opacity:0.721264"
       x="-79.978813"
       y="-292.64151"
       id="text17"><tspan
         sodipodi:role="line"
         id="tspan17"
         x="-79.813812"
         y="-292.64151"
         style="font-style:normal;font-variant:normal;font-weight:bold;font-stretch:normal;font-family:Courier;-inkscape-font-specification:'Courier Bold';fill:#ffffff;stroke:#000000;stroke-width:5;stroke-dasharray:none;stroke-opacity:1">.wly</tspan></text>
    <path
       style="font-weight:bold;font-size:144px;font-family:Courier;-inkscape-font-specification:'Courier Bold';text-align:center;letter-spacing:0.33px;text-anchor:middle;fill:#ffffff;stroke:#000000;stroke-width:2.44563;stroke-miterlimit:2"
       d="m -254.12311,-83.063191 6.19049,14.650815 6.50001,-14.650815 h -0.55027 q -1.85714,0 -2.8545,-0.962965 -0.96296,-0.962964 -0.96296,-2.82011 0,-2.029103 0.96296,-2.888893 0.99736,-0.85979 3.40477,-0.85979 h 8.08202 q 2.40741,0 3.37038,0.894182 0.99735,0.859789 0.99735,2.854501 0,1.857146 -0.96296,2.82011 -0.96297,0.962965 -2.82011,0.962965 h -0.58466 l -14.13494,30.36777 h 1.54762 q 2.33863,0 3.33598,0.894181 1.03175,0.894181 1.03175,2.923285 0,1.994712 -1.03175,2.888893 -0.99735,0.894181 -3.33598,0.894181 h -15.06351 q -2.37302,0 -3.37038,-0.894181 -0.99736,-0.859789 -0.99736,-2.888893 0,-2.029104 0.99736,-2.923285 0.99736,-0.894181 3.37038,-0.894181 h 5.33069 l 3.23281,-6.912709 -10.42065,-23.455061 h -0.55026 q -1.85715,0 -2.85451,-0.962965 -0.96296,-0.962964 -0.96296,-2.82011 0,-2.029103 0.99735,-2.888893 0.99736,-0.85979 3.37038,-0.85979 h 8.73546 q 2.37302,0 3.37038,0.894182 0.99735,0.859789 0.99735,2.854501 0,1.857146 -0.99735,2.82011 -0.96296,0.962965 -2.78572,0.962965 z"
       id="path21" />
    <path
       style="font-weight:bold;font-size:144px;font-family:Courier;-inkscape-font-specification:'Courier Bold';text-align:center;letter-spacing:0.33px;text-anchor:middle;fill:#ffffff;stroke:#000000;stroke-width:2.44563;stroke-miterlimit:2"
       d="m -279.91275,-66.348881 h 7.39419 q 2.37302,0 3.33598,0.85979 0.96297,0.85979 0.96297,2.854502 0,2.029103 -0.99736,2.923284 -0.96296,0.894182 -3.30159,0.894182 h -23.3175 q -2.30424,0 -3.30159,-0.894182 -0.96297,-0.894181 -0.96297,-2.923284 0,-2.029104 0.92858,-2.854502 0.96296,-0.85979 3.33598,-0.85979 h 7.39419 v -29.851896 h -3.78307 q -2.33863,0 -3.37038,-0.894182 -0.99735,-0.928577 -0.99735,-2.923291 0,-2.0291 0.99735,-2.92328 0.99736,-0.89418 3.37038,-0.89418 h 10.28308 q 0.96297,0 1.47884,0.4127 0.55027,0.3783 0.55027,1.06613 z"
       id="path20" />
    <path
       style="font-weight:bold;font-size:144px;font-family:Courier;-inkscape-font-specification:'Courier Bold';text-align:center;letter-spacing:0.33px;text-anchor:middle;fill:#ffffff;stroke:#000000;stroke-width:2.44563;stroke-miterlimit:2"
       d="m -302.3279,-140.71438 2.75132,16.92066 3.6799,-13.10319 q 0.58466,-2.0635 1.47884,-2.71694 0.89418,-0.65344 2.64815,-0.65344 1.75398,0 2.64815,0.61905 0.89419,0.61905 1.51323,2.75133 l 3.81747,13.10319 2.61376,-16.92066 h -0.58465 q -1.85715,0 -2.82012,-0.96297 -0.96296,-0.96296 -0.96296,-2.8201 0,-2.02911 0.96296,-2.8889 0.99736,-0.85979 3.40477,-0.85979 h 8.08203 q 2.37301,0 3.37037,0.89419 0.99735,0.85978 0.99735,2.8545 0,1.85714 -0.99735,2.8201 -0.96297,0.96297 -2.78572,0.96297 h -0.58465 l -4.29896,21.7011 q -0.34391,1.78836 -1.58201,2.57937 -1.23809,0.82539 -3.61111,0.82539 -2.33863,0 -3.57673,-0.82539 -1.23809,-0.79101 -1.78836,-2.57937 l -4.02382,-13.37834 -3.57672,13.37834 q -0.44709,1.71957 -1.78837,2.54497 -1.34126,0.85979 -3.6455,0.85979 -2.37302,0 -3.57673,-0.82539 -1.2037,-0.79101 -1.54762,-2.57937 l -4.36773,-21.7011 h -0.58466 q -1.82275,0 -2.75132,-0.96297 -0.96297,-0.96296 -0.96297,-2.8201 0,-1.99472 0.96297,-2.8545 0.96296,-0.89419 3.33598,-0.89419 h 8.15081 q 2.37301,0 3.33598,0.89419 0.96296,0.85978 0.96296,2.8545 0,1.85714 -0.96296,2.8201 -0.92857,0.96297 -2.75133,0.96297 z"
       id="path19" />
    <path
       style="font-weight:bold;font-size:144px;font-family:Courier;-inkscape-font-specification:'Courier Bold';text-align:center;letter-spacing:0.33px;text-anchor:middle;fill:#ffffff;stroke:#000000;stroke-width:2.44563;stroke-miterlimit:2"
       d="m -320.77254,-128.91807 q 3.23281,0 5.19313,1.78836 1.99472,1.78837 1.99472,4.67726 0,2.85451 -1.99472,4.67726 -1.96032,1.78837 -5.19313,1.78837 -3.16402,0 -5.15873,-1.78837 -1.99472,-1.82275 -1.99472,-4.67726 0,-2.8545 1.99472,-4.64286 1.99471,-1.82276 5.15873,-1.82276 z"
       id="text19" />
    <path
       style="font-weight:bold;font-size:144px;font-family:Courier;-inkscape-font-specification:'Courier Bold';text-align:center;letter-spacing:0.33px;text-anchor:middle;fill:#666666;stroke:none;stroke-width:1.68;stroke-miterlimit:2;stroke-dasharray:none"
       d="m 13.336677,-73.615789 4.035846,9.551485 4.237624,-9.551485 h -0.358736 q -1.210752,0 -1.860976,-0.6278 -0.627792,-0.627801 -0.627792,-1.838551 0,-1.32286 0.627792,-1.8834 0.650224,-0.56052 2.219712,-0.56052 h 5.269016 q 1.569496,0 2.197288,0.58295 0.650224,0.56053 0.650224,1.86097 0,1.21075 -0.6278,1.838551 -0.6278,0.6278 -1.838544,0.6278 h -0.381168 l -9.215168,19.798033 h 1.00896 q 1.524648,0 2.174872,0.582956 0.67264,0.582953 0.67264,1.905813 0,1.300438 -0.67264,1.883392 -0.650224,0.582956 -2.174872,0.582956 H 8.8524132 q -1.547072,0 -2.197296,-0.582956 -0.6502159,-0.560533 -0.6502159,-1.883392 0,-1.32286 0.6502159,-1.905813 0.650224,-0.582956 2.197296,-0.582956 h 3.4753038 l 2.107607,-4.506687 -6.7936628,-15.291346 h -0.358744 q -1.2107519,0 -1.8609679,-0.6278 -0.6278,-0.627801 -0.6278,-1.838551 0,-1.32286 0.650224,-1.8834 0.650216,-0.56052 2.1972879,-0.56052 h 5.6950158 q 1.547079,0 2.197295,0.58295 0.650215,0.56053 0.650215,1.86097 0,1.21075 -0.650215,1.838551 -0.6278,0.6278 -1.816127,0.6278 z"
       id="path25" />
    <path
       style="font-weight:bold;font-size:144px;font-family:Courier;-inkscape-font-specification:'Courier Bold';text-align:center;letter-spacing:0.33px;text-anchor:middle;fill:#666666;stroke:none;stroke-width:1.68;stroke-miterlimit:2;stroke-dasharray:none"
       d="m -6.1115041,-74.79445 h 4.8205858 c 1.031384,0 1.756336,0.18685 2.1748718,0.560536 0.418528,0.37369 0.6277922,0.994014 0.6277922,1.860972 0,0.881906 -0.2167362,1.517177 -0.6502162,1.905812 -0.4185278,0.388637 -1.1360158,0.582956 -2.1524478,0.582956 H -16.492585 c -1.001488,0 -1.718968,-0.194319 -2.152448,-0.582956 -0.418528,-0.388635 -0.627792,-1.023906 -0.627792,-1.905812 0,-0.881907 0.201784,-1.502231 0.605368,-1.860972 0.418536,-0.373686 1.143488,-0.560536 2.174872,-0.560536 h 4.820584 v -20.73509 h -2.466344 c -1.016432,0 -1.748864,-0.19432 -2.197288,-0.582951 -0.43348,-0.40358 -0.650224,-1.03885 -0.650224,-1.90581 0,-0.88191 0.216744,-1.51718 0.650224,-1.90582 0.43348,-0.388629 1.169829,-0.493149 2.197288,-0.582949 1.696279,-0.14825 4.8563565,-0.5048 6.7039849,-0.84269 0.4117005,-0.0753 0.739896,0.0897 0.964112,0.26905 0.23916,0.16443 0.358744,0.39612 0.358744,0.69507 z"
       id="path26"
       sodipodi:nodetypes="cssscsscscsccscsssscsc" />
    <path
       style="font-weight:bold;font-size:144px;font-family:Courier;-inkscape-font-specification:'Courier Bold';text-align:center;letter-spacing:0.33px;text-anchor:middle;fill:#666666;stroke:none;stroke-width:1.68;stroke-miterlimit:2;stroke-dasharray:none"
       d="m -45.783621,-80.28535 1.793704,11.031285 2.39908,-8.542525 q 0.38116,-1.34528 0.96412,-1.77128 0.582952,-0.42601 1.72644,-0.42601 1.143488,0 1.72644,0.40359 0.58296,0.40358 0.986544,1.7937 l 2.488768,8.542525 1.704016,-11.031285 h -0.38116 q -1.210752,0 -1.838552,-0.6278 -0.627792,-0.6278 -0.627792,-1.83855 0,-1.32286 0.627792,-1.88339 0.650224,-0.56053 2.219712,-0.56053 h 5.269016 q 1.547072,0 2.197288,0.58295 0.650224,0.56054 0.650224,1.86097 0,1.21075 -0.650224,1.83855 -0.627792,0.6278 -1.816128,0.6278 h -0.38116 l -2.802664,14.147847 q -0.224216,1.16591 -1.031384,1.681601 -0.807168,0.538112 -2.35424,0.538112 -1.524648,0 -2.331816,-0.538112 -0.807168,-0.515691 -1.165912,-1.681601 l -2.623296,-8.721887 -2.331816,8.721887 q -0.29148,1.121068 -1.165912,1.65918 -0.874432,0.560533 -2.376656,0.560533 -1.547072,0 -2.331824,-0.538112 -0.784744,-0.515691 -1.00896,-1.681601 l -2.847504,-14.147847 h -0.381168 q -1.188328,0 -1.793704,-0.6278 -0.6278,-0.6278 -0.6278,-1.83855 0,-1.30043 0.6278,-1.86097 0.6278,-0.58295 2.174872,-0.58295 h 5.313856 q 1.547072,0 2.174864,0.58295 0.6278,0.56054 0.6278,1.86097 0,1.21075 -0.6278,1.83855 -0.605376,0.6278 -1.793704,0.6278 z"
       id="path27" />
    <path
       style="font-weight:bold;font-size:144px;font-family:Courier;-inkscape-font-specification:'Courier Bold';text-align:center;letter-spacing:0.33px;text-anchor:middle;fill:#666666;stroke:none;stroke-width:1.68;stroke-miterlimit:2;stroke-dasharray:none"
       d="m -59.019991,-71.954767 q 2.1076,0 3.385616,1.165908 1.30044,1.16591 1.30044,3.049302 0,1.860971 -1.30044,3.049301 -1.278016,1.165909 -3.385616,1.165909 -2.062768,0 -3.363208,-1.165909 -1.300432,-1.18833 -1.300432,-3.049301 0,-1.860969 1.300432,-3.026878 1.30044,-1.188332 3.363208,-1.188332 z"
       id="path28" />
    <path
       style="font-weight:bold;font-size:144px;font-family:Courier;-inkscape-font-specification:'Courier Bold';text-align:center;letter-spacing:0.33px;text-anchor:middle;fill:#666666;stroke:none;stroke-width:1.68;stroke-miterlimit:2;stroke-dasharray:none"
       d="m 271.98695,-105.72279 4.03585,9.551485 4.23763,-9.551485 h -0.35874 q -1.21075,0 -1.86098,-0.6278 -0.62779,-0.6278 -0.62779,-1.83855 0,-1.32286 0.62779,-1.8834 0.65023,-0.56052 2.21972,-0.56052 h 5.26901 q 1.5695,0 2.19729,0.58295 0.65022,0.56053 0.65022,1.86097 0,1.21075 -0.6278,1.83855 -0.6278,0.6278 -1.83854,0.6278 h -0.38117 l -9.21517,19.798033 h 1.00896 q 1.52465,0 2.17488,0.582956 0.67264,0.582953 0.67264,1.905813 0,1.300438 -0.67264,1.883392 -0.65023,0.582956 -2.17488,0.582956 h -9.82054 q -1.54707,0 -2.1973,-0.582956 -0.65021,-0.560533 -0.65021,-1.883392 0,-1.32286 0.65021,-1.905813 0.65023,-0.582956 2.1973,-0.582956 h 3.4753 l 2.10761,-4.506687 -6.79366,-15.291346 h -0.35875 q -1.21075,0 -1.86096,-0.6278 -0.6278,-0.6278 -0.6278,-1.83855 0,-1.32286 0.65022,-1.8834 0.65022,-0.56052 2.19729,-0.56052 h 5.69501 q 1.54708,0 2.1973,0.58295 0.65022,0.56053 0.65022,1.86097 0,1.21075 -0.65022,1.83855 -0.6278,0.6278 -1.81613,0.6278 z"
       id="path29" />
    <path
       style="font-weight:bold;font-size:144px;font-family:Courier;-inkscape-font-specification:'Courier Bold';text-align:center;letter-spacing:0.33px;text-anchor:middle;fill:#666666;stroke:none;stroke-width:1.68;stroke-miterlimit:2;stroke-dasharray:none"
       d="m 251.04067,-94.214851 h 4.82058 c 1.03138,0 1.75634,0.186844 2.17487,0.560532 0.41853,0.37369 0.62779,0.994014 0.62779,1.860972 0,0.881906 -0.21673,1.517177 -0.65021,1.905812 -0.41853,0.388637 -1.13602,0.582956 -2.15245,0.582956 h -15.20166 c -1.00149,0 -1.71897,-0.194319 -2.15245,-0.582956 -0.41853,-0.388635 -0.62779,-1.023906 -0.62779,-1.905812 0,-0.881907 0.20178,-1.502231 0.60536,-1.860972 0.41854,-0.373688 1.14349,-0.560532 2.17488,-0.560532 h 4.82058 v -20.735089 h -2.46634 c -1.01644,0 -1.74887,-0.19432 -2.19729,-0.58295 -0.43348,-0.40358 -0.65023,-1.03885 -0.65023,-1.90581 0,-0.88191 0.21675,-1.51718 0.65023,-1.90582 0.43348,-0.38863 1.16591,-0.58295 2.19729,-0.58295 h 6.70398 c 0.41853,0 0.7399,0.0897 0.96411,0.26905 0.23916,0.16443 0.35875,0.39612 0.35875,0.69507 z"
       id="path30"
       sodipodi:nodetypes="cssscsscscsccscsssscsc" />
    <path
       style="font-weight:bold;font-size:144px;font-family:Courier;-inkscape-font-specification:'Courier Bold';text-align:center;letter-spacing:0.33px;text-anchor:middle;fill:#666666;stroke:none;stroke-width:1.68;stroke-miterlimit:2;stroke-dasharray:none"
       d="m 210.24497,-105.72279 1.7937,11.031285 2.39908,-8.542525 q 0.38116,-1.34528 0.96412,-1.77128 0.58296,-0.42601 1.72644,-0.42601 1.14349,0 1.72644,0.40359 0.58296,0.40358 0.98655,1.7937 l 2.48877,8.542525 1.70401,-11.031285 h -0.38116 q -1.21075,0 -1.83855,-0.6278 -0.62779,-0.6278 -0.62779,-1.83855 0,-1.32286 0.62779,-1.88339 0.65022,-0.56053 2.21971,-0.56053 h 5.26902 q 1.54707,0 2.19729,0.58295 0.65022,0.56054 0.65022,1.86097 0,1.21075 -0.65022,1.83855 -0.6278,0.6278 -1.81613,0.6278 h -0.38116 l -2.80267,14.147847 q -0.22421,1.16591 -1.03138,1.681601 -0.80717,0.538112 -2.35424,0.538112 -1.52465,0 -2.33182,-0.538112 -0.80716,-0.515691 -1.16591,-1.681601 l -2.62329,-8.721887 -2.33182,8.721887 q -0.29148,1.121068 -1.16591,1.65918 -0.87443,0.560533 -2.37666,0.560533 -1.54707,0 -2.33182,-0.538112 -0.78475,-0.515691 -1.00896,-1.681601 l -2.84751,-14.147847 h -0.38116 q -1.18833,0 -1.79371,-0.6278 -0.6278,-0.6278 -0.6278,-1.83855 0,-1.30043 0.6278,-1.86097 0.6278,-0.58295 2.17487,-0.58295 h 5.31386 q 1.54707,0 2.17486,0.58295 0.6278,0.56054 0.6278,1.86097 0,1.21075 -0.6278,1.83855 -0.60537,0.6278 -1.7937,0.6278 z"
       id="path31" />
    <path
       style="font-weight:bold;font-size:144px;font-family:Courier;-inkscape-font-specification:'Courier Bold';text-align:center;letter-spacing:0.33px;text-anchor:middle;fill:#666666;stroke:none;stroke-width:1.68;stroke-miterlimit:2;stroke-dasharray:none"
       d="m 193.5658,-96.862545 q 2.1076,0 3.38562,1.165908 1.30044,1.16591 1.30044,3.049302 0,1.860971 -1.30044,3.049301 -1.27802,1.165909 -3.38562,1.165909 -2.06277,0 -3.36321,-1.165909 -1.30043,-1.18833 -1.30043,-3.049301 0,-1.860969 1.30043,-3.026878 1.30044,-1.188332 3.36321,-1.188332 z"
       id="path32" />
  </g>
  <g
     inkscape:groupmode="layer"
     id="layer3"
     inkscape:label="Layer 2">
    <rect
       style="fill:#f4e3d7;fill-opacity:1;stroke:none;stroke-width:2.1;stroke-miterlimit:2;stroke-dasharray:none;stroke-opacity:1"
       id="rect32"
       width="128"
       height="128"
       x="0"
       y="0" />
    <path
       style="font-weight:bold;font-size:144px;font-family:Courier;-inkscape-font-specification:'Courier Bold';text-align:center;letter-spacing:0.33px;text-anchor:middle;display:inline;fill:#000000;stroke:none;stroke-width:2.4964;stroke-miterlimit:2;stroke-dasharray:none"
       d="m 91.726981,74.401083 5.997073,14.193073 6.296916,-14.193073 h -0.53307 q -1.79912,0 -2.76532,-0.932891 -0.932867,-0.932881 -0.932867,-2.732002 0,-1.965707 0.932867,-2.798635 0.9662,-0.832918 3.29839,-0.832918 h 7.82952 q 2.33219,0 3.26508,0.866239 0.96619,0.832928 0.96619,2.765314 0,1.799121 -0.93288,2.732002 -0.93287,0.932891 -2.732,0.932891 h -0.56639 L 98.157179,103.82003 h 1.499264 q 2.265557,0 3.231747,0.86625 0.99952,0.86625 0.99952,2.83195 0,1.9324 -0.99952,2.79865 -0.96619,0.86624 -3.231747,0.86624 H 85.063555 q -2.298887,0 -3.265081,-0.86624 -0.966192,-0.83292 -0.966192,-2.79865 0,-1.9657 0.966192,-2.83195 0.966194,-0.86625 3.265081,-0.86625 h 5.164146 L 93.359516,97.123325 83.264434,74.401083 h -0.533078 q -1.799121,0 -2.765314,-0.932891 -0.932881,-0.932881 -0.932881,-2.732002 0,-1.965707 0.966202,-2.798635 0.966193,-0.832918 3.265071,-0.832918 h 8.462547 q 2.298878,0 3.265071,0.866239 0.966192,0.832928 0.966192,2.765314 0,1.799121 -0.966192,2.732002 -0.932882,0.932891 -2.698682,0.932891 z"
       id="path24" />
    <path
       style="font-weight:bold;font-size:144px;font-family:Courier;-inkscape-font-specification:'Courier Bold';text-align:center;letter-spacing:0.33px;text-anchor:middle;display:inline;fill:#000000;stroke:none;stroke-width:2.4964;stroke-miterlimit:2;stroke-dasharray:none"
       d="m 97.984943,52.868204 h 7.163177 c 1.53259,0 2.60984,0.277639 3.23176,0.832918 0.62192,0.555288 0.93288,1.477069 0.93288,2.765324 0,1.310474 -0.32207,2.254447 -0.9662,2.831946 -0.62193,0.577489 -1.68807,0.866239 -3.19844,0.866239 H 82.55914 c -1.488161,0 -2.554317,-0.28875 -3.198439,-0.866239 -0.621921,-0.577499 -0.932881,-1.521472 -0.932881,-2.831946 0,-1.310475 0.29985,-2.232246 0.899561,-2.765324 0.621921,-0.555279 1.699167,-0.832918 3.231759,-0.832918 h 7.163173 v -30.2549 h -3.664884 c -1.510371,0 -2.598728,-0.28874 -3.265071,-0.86623 -0.644132,-0.59971 -0.966193,-1.543702 -0.966193,-2.831956 0,-1.310475 0.322061,-2.254466 0.966193,-2.831965 0.644131,-0.577481 1.732488,-0.86624 3.265071,-0.86624 h 9.961817 c 0.621921,0 1.099458,0.133264 1.43263,0.399804 0.355381,0.244328 0.533067,0.588609 0.533067,1.032834 z"
       id="path23"
       sodipodi:nodetypes="cssscsscscsccscsssscsc" />
    <path
       style="font-weight:bold;font-size:144px;font-family:Courier;-inkscape-font-specification:'Courier Bold';text-align:center;letter-spacing:0.33px;text-anchor:middle;display:inline;fill:#000000;stroke:none;stroke-width:2.4964;stroke-miterlimit:2;stroke-dasharray:none"
       d="m 40.14544,60.370549 2.665361,16.391988 3.564931,-12.693811 q 0.566389,-1.999018 1.432638,-2.63204 0.86624,-0.633031 2.565417,-0.633031 1.699168,0 2.565408,0.59971 0.866249,0.59971 1.465959,2.665361 l 3.698195,12.693811 2.532097,-16.391988 h -0.566389 q -1.799122,0 -2.732004,-0.932891 -0.932881,-0.932881 -0.932881,-2.732002 0,-1.965697 0.932881,-2.798626 0.966203,-0.832918 3.298393,-0.832918 h 7.829515 q 2.298878,0 3.265071,0.86623 0.966203,0.832928 0.966203,2.765314 0,1.799121 -0.966203,2.732002 -0.932872,0.932891 -2.698681,0.932891 h -0.56639 L 64.30033,81.393604 q -0.333171,1.732489 -1.532592,2.498784 -1.199411,0.799608 -3.498289,0.799608 -2.265567,0 -3.464977,-0.799608 -1.199421,-0.766295 -1.73249,-2.498784 l -3.898102,-12.96033 -3.464967,12.96033 q -0.433135,1.665857 -1.732498,2.465464 -1.299365,0.832928 -3.531611,0.832928 -2.298877,0 -3.464977,-0.799608 -1.166099,-0.766295 -1.499271,-2.498784 L 32.249292,60.370549 h -0.566389 q -1.76581,0 -2.665371,-0.932891 -0.932881,-0.932881 -0.932881,-2.732002 0,-1.932386 0.932881,-2.765314 0.932883,-0.86623 3.23176,-0.86623 h 7.896148 q 2.298878,0 3.23176,0.86623 0.932881,0.832928 0.932881,2.765314 0,1.799121 -0.932881,2.732002 -0.899561,0.932891 -2.66537,0.932891 z"
       id="path22" />
    <path
       style="font-weight:bold;font-size:144px;font-family:Courier;-inkscape-font-specification:'Courier Bold';text-align:center;letter-spacing:0.33px;text-anchor:middle;display:inline;fill:#000000;stroke:none;stroke-width:2.4964;stroke-miterlimit:2;stroke-dasharray:none"
       d="m 18.848185,72.749998 q 3.131806,0 5.030882,1.732498 1.932395,1.732498 1.932395,4.531124 0,2.765324 -1.932395,4.531133 -1.899076,1.73248 -5.030882,1.73248 -3.065163,0 -4.997559,-1.73248 -1.932386,-1.765809 -1.932386,-4.531133 0,-2.765314 1.932386,-4.497813 1.932395,-1.765809 4.997559,-1.765809 z"
       id="text21" />
  </g>
</svg>
